<?xml version="1.0" standalone="no"?>
<!DOCTYPE svg PUBLIC "-//W3C//DTD SVG 20010904//EN"
 "http://www.w3.org/TR/2001/REC-SVG-20010904/DTD/svg10.dtd">
<svg version="1.0" xmlns="http://www.w3.org/2000/svg"
 width="1024.000000pt" height="1024.000000pt" viewBox="0 0 1024.000000 1024.000000"
 preserveAspectRatio="xMidYMid meet">
<metadata>
Created by potrace 1.14, written by Peter Selinger 2001-2017
</metadata>
<g transform="translate(0.000000,1024.000000) scale(0.100000,-0.100000)"
fill="#000000" stroke="none">
<path d="M0 5120 l0 -5120 5120 0 5120 0 0 5120 0 5120 -5120 0 -5120 0 0
-5120z m4880 4974 c0 -10 -12 -14 -40 -14 -32 0 -40 4 -40 18 0 14 7 17 40 14
26 -3 40 -9 40 -18z m143 -11 c-13 -2 -33 -2 -45 0 -13 2 -3 4 22 4 25 0 35
-2 23 -4z m-20 -40 c-86 -8 -40 -20 74 -20 82 1 118 -3 121 -11 2 -8 33 -12
93 -12 53 0 89 -4 89 -10 0 -5 11 -10 25 -10 13 0 28 -8 34 -17 5 -10 24 -23
43 -30 l33 -13 -30 4 c-16 2 -42 2 -58 -1 -22 -4 -25 -8 -16 -19 15 -18 29
-18 29 1 0 21 17 19 42 -5 12 -11 25 -20 30 -20 4 0 8 9 8 20 0 13 7 20 20 20
11 0 20 -5 20 -11 0 -6 9 -24 21 -40 14 -20 29 -29 49 -29 16 0 35 -8 42 -18
7 -10 20 -21 29 -24 19 -7 65 -68 51 -68 -5 0 -15 7 -22 15 -7 8 -17 15 -23
15 -5 0 -2 -9 8 -20 10 -11 24 -20 32 -20 16 0 18 -37 1 -42 -6 -2 -8 -10 -4
-17 5 -8 24 -11 50 -9 39 3 41 1 44 -28 2 -24 12 -36 43 -53 21 -12 39 -18 39
-12 0 6 7 8 15 5 8 -4 15 -16 15 -29 0 -19 4 -22 23 -18 18 4 19 3 7 -6 -8 -6
-10 -11 -4 -11 19 0 25 -40 6 -40 -14 0 -15 -2 -2 -9 8 -6 17 -8 20 -6 3 2 4
-14 2 -36 -4 -35 0 -44 34 -77 32 -30 39 -34 42 -19 4 21 11 21 34 0 24 -21
23 -31 -4 -35 -21 -3 -20 -5 10 -20 31 -16 33 -16 42 3 6 10 16 19 23 18 9 0
9 -2 0 -6 -21 -8 -15 -25 6 -18 14 4 23 0 31 -15 13 -25 7 -26 -16 -2 -17 16
-17 16 -12 -5 3 -13 3 -25 -2 -28 -4 -3 -11 7 -14 21 -4 15 -9 24 -12 22 -2
-3 0 -17 5 -31 7 -19 7 -27 -2 -30 -7 -2 1 -2 17 1 19 3 26 1 22 -7 -4 -6 -1
-11 6 -11 9 0 9 -3 -2 -10 -12 -8 -10 -10 10 -9 14 1 39 -4 55 -11 17 -7 35
-14 41 -15 6 -2 28 -12 50 -24 21 -12 30 -19 19 -16 -124 41 -167 47 -60 9 98
-35 155 -53 155 -48 0 3 -10 9 -22 14 -20 9 -19 9 9 6 18 -2 42 -12 55 -21
l23 -16 -30 6 c-28 5 -28 4 5 -9 19 -8 48 -15 63 -15 19 -1 26 -5 21 -13 -5
-7 0 -9 14 -6 12 3 20 2 19 -4 -1 -5 21 -18 48 -29 28 -11 87 -38 133 -60 46
-21 88 -37 93 -33 5 3 8 1 7 -5 -2 -7 34 -31 79 -55 45 -24 96 -54 113 -66 16
-12 35 -18 42 -14 7 4 10 4 6 0 -4 -5 71 -60 165 -123 95 -64 215 -150 267
-192 264 -210 566 -520 756 -776 81 -109 108 -148 212 -309 73 -113 201 -388
277 -594 21 -57 35 -105 32 -108 -3 -3 -8 8 -12 25 -4 17 -10 31 -15 31 -5 0
0 -26 12 -57 26 -75 32 -120 16 -126 -7 -2 -6 -3 3 -2 22 3 57 -124 37 -136
-7 -5 -18 -7 -24 -5 -6 2 -17 0 -25 -5 -11 -7 -9 -9 9 -9 12 0 22 -6 22 -12 0
-9 3 -9 9 1 6 8 16 11 27 7 16 -6 16 -9 -7 -30 -13 -12 -32 -23 -42 -24 -42
-4 -47 -6 -47 -14 0 -4 6 -8 14 -8 8 0 22 -7 30 -16 9 -8 16 -11 16 -6 0 5 9
12 20 15 13 3 18 10 14 21 -3 9 -2 16 4 16 10 0 32 -83 32 -121 0 -11 -6 -27
-14 -34 -18 -19 -83 -30 -99 -17 -9 8 -12 4 -13 -14 -2 -26 -8 -26 105 2 54
14 78 11 52 -5 -8 -5 -32 -12 -55 -15 -58 -10 -116 -28 -116 -37 0 -4 13 -4
29 1 24 7 30 5 34 -11 3 -11 1 -16 -4 -13 -6 3 -8 -6 -4 -23 3 -15 2 -21 -1
-13 -14 30 -45 40 -40 13 12 -62 17 -103 14 -106 -1 -2 3 -11 10 -20 9 -10 10
-17 2 -22 -16 -10 -27 2 -33 37 -2 18 -12 64 -20 103 -12 51 -13 71 -5 76 14
9 -6 108 -63 318 -56 202 -137 416 -235 619 -123 254 -224 420 -397 650 -90
120 -362 406 -377 397 -4 -3 -14 3 -21 13 -13 16 -12 16 6 2 11 -8 5 2 -14 23
-27 28 -38 34 -48 26 -18 -15 -16 -22 3 -15 9 3 12 2 9 -4 -4 -6 11 -27 32
-48 21 -20 70 -71 108 -112 38 -41 74 -74 80 -72 5 2 7 0 3 -4 -4 -4 16 -35
45 -68 90 -104 162 -198 219 -283 31 -45 57 -81 59 -78 3 2 4 -10 4 -28 0 -18
3 -40 8 -51 6 -13 6 -16 -2 -12 -6 4 -11 0 -11 -9 0 -9 -9 -19 -21 -22 -16 -5
-18 -8 -7 -15 9 -7 7 -8 -9 -5 -23 5 -31 -7 -13 -18 5 -3 30 13 54 35 l45 41
41 -62 c23 -35 53 -83 66 -108 94 -174 145 -282 138 -293 -3 -4 -1 -8 4 -8 6
0 16 -22 23 -50 7 -27 16 -50 21 -50 11 0 30 -79 22 -92 -4 -7 -3 -8 4 -4 8 5
12 -2 12 -19 0 -15 4 -24 10 -20 7 4 7 -2 0 -19 -6 -17 -6 -27 2 -32 7 -4 8
-3 4 4 -4 7 -3 12 2 12 11 0 24 -41 16 -49 -3 -3 -9 1 -13 8 -8 13 -16 -43
-25 -167 -2 -36 0 -49 6 -40 7 9 8 5 5 -14 -3 -19 0 -25 10 -21 11 4 11 0 3
-21 -5 -14 -7 -40 -3 -58 5 -28 7 -29 14 -13 6 13 7 7 3 -16 -3 -22 0 -50 10
-72 8 -20 11 -39 6 -42 -13 -8 -16 0 -55 154 -89 353 -234 700 -398 951 -30
47 -55 94 -54 104 1 10 -5 21 -13 24 -13 5 -13 3 -1 -11 7 -10 10 -17 5 -17
-5 1 -39 48 -77 105 -37 57 -108 154 -158 215 -139 170 -460 487 -481 474 -5
-3 -12 3 -15 14 -2 11 -20 28 -39 38 -19 10 -34 22 -34 25 0 12 -144 114 -157
111 -6 -1 -15 3 -19 9 -4 8 -3 9 4 5 7 -4 12 -5 12 -2 0 10 -76 51 -89 48 -7
-2 -10 1 -7 7 4 6 -8 17 -26 24 -18 8 -47 26 -64 40 -41 35 -283 159 -295 152
-5 -4 -9 -2 -9 4 0 14 -78 53 -91 46 -16 -11 2 -26 23 -19 13 4 18 2 14 -4 -3
-5 18 -22 47 -37 28 -15 100 -54 159 -86 59 -33 111 -59 117 -59 6 0 11 -3 11
-7 0 -5 21 -21 48 -37 166 -103 403 -297 594 -486 229 -227 431 -488 599 -771
48 -82 180 -350 204 -414 105 -287 199 -641 168 -633 -14 3 -97 -23 -121 -38
-18 -12 -23 -12 -26 -2 -2 7 -18 76 -36 153 -120 523 -359 988 -721 1400 -122
140 -305 315 -439 423 -112 89 -343 247 -450 307 -192 108 -513 247 -602 262
-21 3 -38 10 -38 15 0 6 -7 8 -15 5 -8 -4 -17 -2 -19 2 -7 10 -53 20 -131 27
-32 3 -76 14 -97 25 -42 22 -60 25 -35 7 16 -12 15 -13 -8 -14 -14 -1 -25 2
-25 7 0 14 -30 11 -31 -3 0 -10 -2 -10 -6 0 -2 6 -19 11 -36 11 l-32 -1 29 -7
c34 -7 27 -15 -41 -47 -24 -10 -43 -22 -43 -25 0 -3 39 -14 88 -23 48 -10 110
-24 137 -31 28 -8 70 -19 94 -25 23 -6 41 -13 39 -15 -2 -3 -20 0 -38 5 -136
39 -350 69 -350 50 0 -6 10 -11 23 -11 21 -2 21 -2 1 -6 -19 -4 -22 -13 -27
-88 -9 -134 -49 -208 -184 -343 -82 -83 -124 -117 -173 -141 -36 -17 -73 -31
-82 -31 -16 0 -18 -14 -18 -162 l0 -161 31 44 c29 40 123 153 157 189 28 30
-21 -55 -78 -135 -91 -126 -102 -153 -107 -258 l-5 -92 32 44 c17 24 94 106
171 183 95 96 153 164 185 216 l46 77 -6 90 c-3 54 -2 106 5 130 6 22 11 48
12 58 1 9 4 17 8 17 4 0 17 15 28 33 11 19 36 42 55 52 19 10 32 23 29 28 -3
6 -1 7 5 4 17 -11 41 3 35 21 -3 12 -2 13 4 4 7 -10 16 -9 44 5 38 18 51 32
42 47 -3 5 -1 6 6 2 6 -4 9 -12 6 -17 -3 -5 1 -6 10 -3 13 5 13 9 3 23 -12 14
-11 14 4 2 10 -7 23 -11 30 -8 10 3 13 -25 11 -131 -2 -203 -24 -243 -163
-297 -106 -42 -146 -70 -179 -129 -46 -79 -109 -157 -219 -270 -107 -109 -138
-156 -173 -256 -22 -63 -23 -79 -26 -470 l-4 -405 27 53 c18 36 53 77 113 130
130 116 199 189 230 243 l27 48 -52 57 c-119 127 -133 249 -47 417 53 105 171
187 392 272 104 40 101 40 101 19 0 -9 14 -73 32 -142 53 -211 43 -347 -34
-447 -59 -77 -210 -165 -283 -165 -18 0 -32 -14 -59 -58 -45 -75 -92 -134
-119 -150 -22 -13 -22 -13 3 -8 203 46 338 44 436 -4 74 -36 116 -81 158 -170
26 -55 31 -77 31 -142 l0 -77 65 71 c168 184 256 342 268 486 6 81 22 91 22
14 0 -125 -70 -306 -161 -417 -51 -63 -218 -245 -283 -308 -27 -26 -47 -49
-45 -52 2 -2 36 10 74 28 64 28 80 31 175 31 89 1 113 -2 155 -22 67 -31 139
-109 161 -174 24 -73 16 -176 -20 -246 -15 -30 -26 -56 -24 -58 3 -2 60 52
127 121 95 96 122 128 116 142 -3 10 -9 48 -12 85 -5 55 -2 73 16 112 13 25
36 55 51 66 28 20 131 60 154 60 15 0 20 -129 6 -179 -14 -54 -52 -97 -111
-127 -59 -29 -60 -23 -18 66 34 70 52 123 40 116 -4 -3 -17 -29 -30 -58 -67
-152 -82 -175 -165 -262 -47 -49 -84 -91 -82 -93 2 -2 19 5 37 16 50 30 301
125 436 167 149 45 163 48 163 37 0 -5 -69 -31 -152 -57 -84 -27 -186 -64
-226 -82 -40 -19 -76 -34 -81 -34 -5 0 -11 -4 -13 -9 -1 -5 -39 -27 -83 -49
-121 -60 -223 -143 -426 -345 -182 -182 -246 -231 -494 -384 -29 -18 -106 -53
-116 -53 -5 0 -9 -5 -9 -11 0 -5 -5 -7 -12 -3 -6 4 -8 3 -5 -3 4 -6 -16 -22
-46 -36 -58 -29 -123 -89 -174 -162 -28 -40 -54 -105 -42 -105 5 0 9 7 9 15 0
9 12 27 26 40 15 14 24 25 21 25 -3 0 24 29 61 64 210 200 282 236 740 370
337 99 404 110 662 110 146 0 230 -4 260 -12 25 -7 53 -15 63 -18 14 -4 17 1
17 33 0 51 35 108 89 147 l43 31 142 0 c141 0 143 0 191 -30 27 -17 57 -44 66
-60 21 -37 36 -115 19 -99 -6 6 -13 20 -14 30 -2 11 -7 19 -12 19 -5 0 -15 4
-21 8 -8 5 -13 3 -13 -4 0 -8 -4 -8 -15 1 -12 10 -15 10 -15 -1 0 -11 -2 -11
-11 1 -8 12 -9 10 -7 -10 2 -14 9 -30 17 -36 11 -9 12 -12 1 -19 -9 -5 -11 -4
-6 3 4 7 3 12 -2 12 -6 0 -12 -7 -16 -15 -3 -8 -13 -15 -23 -15 -15 0 -16 -2
-3 -10 9 -6 17 -5 23 3 6 8 7 7 4 -3 -2 -8 -8 -14 -13 -13 -5 1 -10 -39 -10
-88 -2 -83 -7 -110 -19 -98 -2 3 -7 59 -10 124 -7 130 -14 164 -15 69 0 -88
-14 -185 -25 -182 -5 2 -9 14 -8 28 1 19 0 20 -4 5 -10 -38 -23 -40 -24 -5
l-2 35 -6 -34 c-7 -37 -27 -53 -33 -25 -3 16 -4 17 -20 1 -9 -9 -19 -17 -22
-17 -3 0 -6 27 -6 60 0 74 -15 80 -18 8 -1 -29 -6 -56 -11 -61 -23 -23 -33 11
-46 162 -5 51 -15 68 -15 24 0 -39 -20 -78 -40 -78 -31 1 -53 -43 -47 -93 l5
-46 -19 25 c-13 18 -19 45 -21 104 l-3 80 -50 14 c-31 8 -104 14 -195 14 -158
1 -241 -13 -403 -64 -50 -16 -103 -29 -117 -30 -14 0 9 -8 50 -18 86 -19 161
-64 232 -137 59 -61 96 -141 114 -247 8 -45 21 -113 30 -151 16 -77 12 -93
-16 -56 -24 31 -36 80 -50 200 -20 166 -83 260 -225 333 -87 44 -189 48 -347
13 -447 -101 -712 -274 -805 -526 -28 -74 -36 -130 -24 -160 9 -24 10 -24 10
-3 1 26 21 42 21 16 -1 -167 11 -318 33 -403 73 -281 173 -435 392 -599 146
-110 128 -104 215 -70 41 16 84 34 95 39 11 5 52 21 90 34 39 13 124 47 190
75 66 28 126 50 134 51 8 0 37 -17 65 -39 28 -21 77 -55 109 -75 31 -20 57
-39 57 -41 0 -6 -150 63 -169 78 -12 9 -13 9 -7 0 5 -9 2 -11 -9 -7 -9 4 -14
9 -11 11 2 3 -3 12 -12 22 -21 21 -30 19 -180 -46 -61 -28 -109 -53 -105 -58
5 -4 2 -5 -5 -1 -15 9 -83 -14 -76 -26 3 -4 -6 -8 -20 -8 -13 0 -31 -6 -38
-13 -17 -17 -86 -37 -129 -38 -29 0 -16 -9 95 -64 131 -65 528 -203 894 -311
l163 -48 -23 -18 c-59 -48 -61 -49 -124 -38 -32 6 -70 15 -84 20 -14 4 -56 20
-95 33 -38 14 -160 53 -270 87 -192 60 -259 83 -335 118 -19 8 -41 16 -47 18
-20 4 -83 45 -83 54 0 5 6 11 13 13 7 4 5 6 -5 7 -29 4 -32 5 -48 15 -13 8
-13 7 -1 -8 7 -9 17 -14 22 -11 5 3 9 -4 9 -15 0 -11 4 -22 9 -25 19 -12 96
-134 128 -203 18 -39 40 -100 48 -135 19 -84 33 -478 17 -478 -8 0 -12 36 -13
118 -1 126 -15 341 -17 279 -1 -21 -6 -36 -11 -32 -5 3 -11 0 -14 -7 -2 -7 -3
0 -1 15 2 17 0 26 -6 22 -6 -3 -10 3 -10 14 0 13 -5 18 -14 15 -9 -4 -17 9
-25 43 -28 114 -117 260 -203 334 -77 66 -169 139 -198 157 -62 40 -179 134
-220 178 -40 43 -120 157 -157 226 -29 53 -10 -6 26 -78 71 -146 141 -250 312
-464 100 -126 147 -200 177 -285 25 -68 26 -78 30 -372 3 -216 1 -303 -7 -303
-8 0 -11 59 -13 188 0 104 -4 167 -8 142 -6 -42 -6 -43 -12 -15 -4 23 -6 17
-8 -25 l-2 -55 -11 55 c-5 30 -10 75 -12 100 -6 128 -7 136 -14 110 -6 -19 -9
-10 -14 40 -10 92 -64 197 -193 370 -143 192 -234 333 -295 455 -28 55 -48 90
-45 79 4 -12 2 -34 -4 -50 l-11 -28 -39 65 c-22 35 -39 69 -40 75 0 6 -6 17
-13 23 -16 13 -35 70 -53 166 l-14 70 6 -80 c5 -76 43 -279 66 -355 60 -201
115 -321 228 -495 82 -127 120 -208 141 -302 16 -72 20 -624 4 -620 -6 1 -10
65 -9 167 0 110 -2 142 -6 95 l-6 -70 -3 103 c-2 56 -5 107 -6 112 -1 6 -4 20
-5 33 l-2 22 -6 -23 c-4 -12 -5 -116 -2 -230 5 -200 -1 -272 -24 -272 -6 -1
-55 -9 -109 -19 -53 -10 -100 -15 -102 -10 -3 4 21 13 52 19 32 6 83 17 113
24 l55 13 3 159 c4 179 -6 350 -18 337 -5 -4 -29 -44 -53 -88 -25 -44 -49 -79
-54 -78 -12 2 -78 -97 -79 -120 -1 -10 -5 -21 -9 -25 -5 -4 -5 1 -2 11 11 31
-10 9 -39 -40 -32 -56 -43 -94 -54 -193 -8 -70 -8 -67 -6 45 1 134 -9 106 109
298 69 113 95 178 104 258 3 34 12 64 21 71 13 11 15 9 9 -20 -4 -19 -3 -31 2
-27 14 8 25 -34 13 -48 -5 -7 -6 -21 -2 -32 6 -15 9 -9 15 28 8 53 1 119 -21
180 -20 56 -95 187 -105 182 -9 -6 -134 240 -144 284 -5 22 -10 29 -15 21 -5
-8 -11 -3 -19 16 l-11 29 6 -30 c5 -29 5 -29 -10 -10 l-15 20 -2 -20 c-1 -14
-4 -11 -9 10 -6 24 -8 26 -9 8 -1 -25 -16 -31 -25 -10 -3 6 -3 -1 0 -18 12
-55 16 -743 7 -1235 -6 -377 -9 -448 -13 -320 l-6 165 -3 -125 c-5 -174 -18
-109 -20 94 0 88 -3 157 -5 155 -2 -2 -6 -156 -9 -343 -3 -186 -8 -340 -10
-342 -10 -10 -17 1745 -8 1816 10 76 13 163 4 125 -8 -32 -21 -39 -17 -8 4 27
4 27 -6 4 -10 -23 -11 -23 -31 -5 -15 13 -18 25 -14 44 10 39 -11 11 -25 -35
-18 -59 -84 -196 -131 -273 -83 -134 -96 -158 -113 -207 -29 -81 -35 -134 -19
-166 18 -36 26 -38 13 -3 -6 14 -10 35 -9 47 1 21 2 20 10 -3 l9 -25 -4 27
c-2 15 3 49 10 75 l13 48 0 -81 c1 -127 26 -191 164 -429 43 -72 47 -85 46
-140 l-1 -60 -8 45 c-10 60 -33 112 -77 179 -46 70 -60 84 -68 71 -7 -11 27
-66 53 -88 9 -7 11 -12 4 -12 -6 0 -25 20 -42 45 -25 37 -29 48 -20 65 8 14 8
20 0 20 -6 0 -8 5 -5 10 3 6 1 10 -5 10 -6 0 -8 5 -4 12 4 7 3 8 -5 4 -7 -4
-15 2 -20 16 -6 13 -10 18 -10 11 -1 -6 9 -29 21 -50 17 -29 18 -35 5 -24 -9
7 -17 17 -17 22 0 5 -16 33 -35 63 -19 30 -35 59 -35 64 0 5 -6 15 -14 21 -11
9 -14 -3 -20 -66 -3 -42 -7 -117 -8 -167 -1 -68 -2 -80 -7 -46 -4 27 -9 39
-12 29 -4 -8 -5 -28 -3 -45 2 -16 1 -20 -2 -9 -14 48 -19 27 -16 -65 3 -88 1
-100 -13 -100 -15 0 -16 26 -12 307 5 392 12 418 167 649 142 211 216 405 260
687 15 93 8 112 -11 28 -8 -37 -16 -56 -21 -48 -6 9 -8 8 -8 -3 0 -25 -69
-128 -89 -135 -11 -3 -26 -20 -35 -38 -13 -26 -16 -28 -16 -11 0 12 7 40 15
63 18 51 9 54 -11 4 -27 -65 -95 -196 -125 -240 -16 -23 -29 -44 -29 -48 0
-15 -131 -197 -221 -305 -44 -53 -91 -144 -114 -220 -19 -65 -35 -288 -29
-412 3 -55 0 -88 -6 -88 -5 0 -10 -18 -10 -40 0 -22 5 -40 10 -40 6 0 10 -4
10 -9 0 -11 -34 -4 -68 12 l-24 11 4 296 c3 287 4 297 29 365 33 91 72 151
216 331 131 164 168 215 213 297 27 50 44 97 19 54 -6 -9 -14 -15 -20 -12 -5
4 -9 -1 -9 -9 0 -32 -66 -130 -81 -120 -5 3 2 15 15 27 14 12 28 33 32 47 5
19 -12 6 -72 -51 -74 -72 -166 -149 -294 -246 -153 -116 -219 -206 -279 -381
-24 -72 -43 -293 -34 -404 8 -95 4 -101 -47 -75 l-42 20 4 216 c4 188 8 225
27 286 27 84 78 180 137 257 45 59 50 74 14 38 -12 -12 -25 -18 -29 -15 -5 2
-11 -2 -15 -10 -3 -8 -12 -12 -20 -9 -8 3 -32 -4 -54 -15 -23 -12 -132 -50
-244 -86 -112 -37 -270 -88 -353 -115 -82 -27 -161 -50 -175 -52 -14 -2 -24
-9 -23 -15 3 -17 -66 13 -104 46 l-33 27 343 108 c392 123 589 193 734 261 93
43 118 65 77 65 -8 0 -13 -4 -9 -10 8 -13 -83 20 -175 62 -100 47 -179 81
-269 117 l-75 29 -30 -23 c-42 -31 -226 -122 -226 -111 0 2 39 27 88 56 48 30
102 66 120 82 18 15 39 28 48 28 8 0 79 -27 157 -59 185 -78 374 -151 407
-157 20 -5 46 10 128 71 241 180 324 293 400 551 51 171 75 457 47 563 -18 72
-74 201 -86 201 -4 0 -10 8 -13 18 -10 29 -106 120 -176 166 -135 89 -278 143
-497 187 -206 41 -283 38 -387 -16 -83 -42 -98 -54 -148 -116 -51 -62 -74
-117 -94 -229 -17 -95 -40 -146 -83 -184 -31 -28 -33 -16 -6 39 14 28 36 103
50 167 13 65 34 136 45 158 59 116 186 203 345 235 27 6 21 10 -58 36 -168 56
-402 75 -583 49 l-81 -12 -5 -82 c-3 -45 -13 -96 -21 -113 -20 -38 -80 -91
-125 -110 -47 -19 -51 -10 -7 16 22 13 33 25 29 33 -5 7 -2 9 9 5 17 -6 34 23
18 32 -5 3 -13 24 -17 46 l-7 40 -13 -30 c-7 -16 -13 -25 -14 -18 0 9 -8 9
-31 1 -18 -6 -75 -9 -140 -6 -94 4 -118 0 -106 -15 1 -2 -4 -11 -12 -20 -7
-10 -10 -17 -5 -17 5 0 2 -5 -6 -10 -12 -8 -12 -10 5 -10 19 -1 19 -2 3 -14
-15 -11 -13 -15 25 -34 49 -25 39 -28 -24 -7 -51 18 -120 76 -143 122 -12 25
-16 63 -16 171 0 128 2 142 23 173 12 19 47 49 77 67 54 32 54 32 192 32 102
0 148 -4 175 -15 87 -36 134 -98 135 -176 0 -33 3 -39 17 -34 35 14 161 33
256 40 212 14 441 -22 819 -130 276 -79 405 -135 549 -238 55 -39 207 -183
201 -190 -3 -2 3 -10 13 -18 15 -12 16 -12 8 1 -5 8 -10 20 -11 26 -3 19 -36
64 -47 64 -6 0 -8 3 -5 6 11 10 -78 92 -143 131 -35 22 -115 65 -178 97 -207
104 -321 185 -482 342 -47 46 -89 84 -93 84 -4 0 -18 10 -31 23 -66 63 -98 90
-85 72 14 -19 14 -20 -6 -2 -11 9 -24 14 -28 10 -4 -4 -4 0 0 10 4 11 0 19
-11 23 -9 4 -31 20 -48 36 -41 38 -185 119 -262 147 -33 12 -64 26 -70 31 -5
5 -13 9 -18 9 -4 0 -20 7 -35 15 -15 7 -81 34 -147 59 -124 46 -204 63 -450
92 -116 13 -244 19 -175 8 14 -2 63 -11 110 -19 47 -8 154 -23 239 -34 141
-18 199 -30 141 -30 -13 0 -71 -22 -130 -50 -59 -27 -127 -52 -151 -55 -39 -5
-41 -4 -16 6 15 6 27 15 27 19 0 5 -16 2 -36 -6 -34 -14 -39 -14 -89 11 -47
23 -212 159 -214 177 -2 13 183 97 249 114 110 28 183 6 305 -92 88 -71 87
-70 317 -158 106 -40 202 -77 213 -82 15 -6 10 3 -15 33 -121 140 -144 171
-175 231 -48 95 -71 122 -45 53 12 -30 25 -62 30 -72 18 -33 11 -38 -27 -22
-100 41 -122 82 -123 226 0 62 4 107 10 107 5 0 43 -16 84 -36 121 -57 165
-127 151 -239 -6 -51 -8 -55 -21 -38 -28 37 -15 -21 15 -68 30 -46 228 -245
218 -219 -29 76 -39 130 -35 191 12 158 127 275 290 294 64 7 189 -13 283 -45
83 -28 86 -25 30 26 -68 60 -75 66 -75 57 0 -4 -8 4 -17 17 -9 14 -44 50 -77
80 -110 102 -122 115 -168 185 -52 79 -78 136 -82 180 -17 164 -18 188 -9 182
6 -4 13 -28 16 -55 14 -117 105 -278 234 -413 82 -86 231 -215 239 -207 2 3
-3 25 -13 49 -11 29 -17 75 -17 134 0 80 3 97 30 155 73 155 218 225 420 203
88 -10 109 -9 87 5 -18 12 -88 126 -107 175 -11 31 -22 44 -31 41 -38 -15
-253 68 -224 87 11 7 9 9 -8 9 -13 0 -39 20 -68 53 -88 100 -107 253 -56 452
12 44 24 106 28 138 4 44 10 57 22 57 10 0 21 -4 26 -8 6 -5 46 -21 90 -37 44
-15 114 -45 156 -66 42 -21 79 -36 83 -34 3 3 4 2 2 -1 -3 -4 18 -24 45 -46
133 -105 180 -291 110 -431 -17 -34 -51 -83 -77 -109 -54 -56 -54 -59 4 -178
26 -52 54 -91 95 -130 119 -111 202 -196 214 -215 10 -16 12 79 10 465 l-2
485 -27 68 c-15 38 -43 98 -62 135 -79 153 -156 312 -151 312 3 0 35 -46 71
-102 37 -57 84 -129 105 -160 22 -31 48 -76 59 -100 l20 -43 0 205 0 206 -47
13 c-27 8 -52 13 -56 12 -4 0 -42 27 -85 62 -81 67 -203 203 -223 249 -6 15
-16 25 -22 21 -6 -4 -8 0 -4 9 3 9 -1 33 -8 54 -8 22 -14 33 -15 27 0 -7 -6
-13 -13 -13 -15 0 -40 37 -33 49 3 4 -1 17 -10 27 -14 18 -14 17 -8 -16 3 -19
10 -39 15 -44 14 -15 10 -29 -6 -22 -9 3 -15 0 -15 -9 0 -8 7 -15 15 -15 8 0
15 5 15 12 0 6 9 3 20 -7 15 -14 20 -15 20 -4 0 12 2 12 9 0 11 -16 -2 -67
-16 -64 -6 1 -19 -7 -29 -18 -14 -16 -15 -22 -5 -28 20 -13 60 -107 67 -160 3
-27 1 -80 -5 -116 -11 -64 -11 -70 13 -119 14 -28 47 -77 73 -110 70 -86 82
-105 39 -66 -21 19 -65 72 -97 116 -54 74 -65 84 -112 99 -84 27 -190 81 -218
112 -44 47 -59 111 -60 257 0 83 -4 124 -9 111 -7 -16 -9 -17 -9 -3 -1 9 4 20
9 23 6 3 10 15 10 26 0 17 3 18 22 7 12 -7 31 -21 42 -30 11 -10 25 -18 30
-19 6 0 29 -1 51 -2 28 -1 40 -6 40 -17 0 -8 -6 -14 -13 -12 -18 3 -15 -6 6
-17 12 -6 23 -6 33 1 11 8 10 9 -4 4 -12 -4 -17 -2 -14 6 2 7 11 12 20 10 8
-1 18 2 22 8 3 5 -2 10 -12 10 -14 1 -11 7 15 30 37 34 39 40 13 40 -15 0 -20
9 -23 45 -2 25 1 46 7 46 5 1 -8 5 -30 8 l-40 7 35 11 c59 19 -91 4 -189 -19
-106 -24 -117 -17 -14 10 132 35 208 56 212 59 3 2 -1 9 -7 15 -9 9 -12 9 -12
0 0 -15 -31 -4 -48 17 -7 8 -29 17 -50 18 -20 1 -55 4 -77 6 -57 4 -124 -10
-181 -37 -27 -13 -51 -20 -54 -16 -3 5 -21 2 -40 -5 -19 -7 -83 -31 -141 -53
-204 -76 -579 -276 -719 -381 -19 -15 -69 -53 -111 -84 -89 -67 -305 -256
-370 -324 -57 -60 -154 -174 -199 -233 -19 -25 -40 -51 -47 -58 -7 -7 -65 -91
-128 -186 -129 -194 -254 -434 -343 -660 -48 -120 -60 -144 -71 -133 -11 10
-13 9 -7 -3 4 -8 -1 -5 -11 7 -10 12 -27 23 -38 25 -43 7 -49 24 -36 100 14
87 35 138 56 138 9 0 23 16 30 35 15 36 17 87 2 78 -4 -2 -5 -14 -2 -26 5 -20
4 -19 -10 3 l-16 25 5 -32 c7 -40 -23 -80 -62 -85 -25 -3 -28 -7 -39 -78 -6
-41 -12 -93 -12 -116 -1 -38 2 -42 37 -57 63 -28 97 -40 105 -39 10 3 11 10
-32 -160 -81 -313 -113 -556 -113 -858 -2 -590 135 -1112 436 -1672 86 -158
268 -427 379 -558 137 -161 303 -323 448 -439 266 -211 436 -319 722 -458 86
-42 157 -80 157 -84 0 -3 -13 -6 -29 -5 -16 1 -26 5 -23 10 3 6 -3 6 -14 1
-30 -12 -59 -11 -56 3 1 6 -4 12 -10 12 -9 0 -8 4 2 10 12 8 9 10 -13 10 -16
0 -26 4 -22 10 3 6 3 11 -2 11 -4 1 -17 3 -28 4 -11 2 -40 10 -65 19 -42 14
-42 15 -10 11 l35 -4 -35 10 c-19 6 -61 22 -92 36 -31 14 -60 26 -65 26 -4 0
-14 8 -21 18 -7 11 -21 19 -30 19 -13 0 -14 2 -4 9 10 6 7 10 -12 15 -14 3
-26 11 -26 17 0 8 -5 7 -15 -1 -8 -7 -15 -10 -15 -6 0 17 -3 22 -18 39 -33 37
-49 39 -81 11 -17 -14 -31 -21 -31 -16 0 5 7 13 16 16 14 5 14 7 0 22 -15 15
-20 29 -17 47 1 5 -4 5 -10 1 -7 -4 -23 5 -38 22 -14 17 -22 24 -17 17 15 -23
-1 -14 -40 22 -22 19 -42 35 -46 35 -5 0 -8 7 -8 16 0 8 -5 12 -10 9 -6 -4 -7
-11 -4 -17 5 -7 2 -8 -5 -4 -7 5 -10 14 -7 22 3 9 0 11 -11 7 -12 -5 -14 -3
-8 7 6 10 4 12 -9 7 -14 -5 -17 -3 -13 8 4 8 1 17 -5 21 -7 4 -8 3 -4 -4 12
-20 -9 -13 -24 8 -8 11 -20 20 -27 20 -7 0 -10 6 -8 13 3 6 -5 17 -17 22 -13
6 -22 16 -20 23 4 21 -5 13 -64 -60 l-57 -71 -29 32 -29 32 45 52 c31 35 42
53 34 59 -7 4 -9 10 -5 14 13 13 -14 35 -29 24 -10 -9 -11 -6 -7 11 4 15 3 20
-5 15 -7 -4 -12 -1 -12 8 0 9 -9 25 -19 35 -11 11 -16 23 -13 27 4 5 -2 2 -12
-6 -18 -13 -19 -13 -14 0 4 12 -1 15 -20 14 -14 0 -28 -6 -30 -12 -2 -8 3 -10
15 -5 10 3 15 3 11 -1 -3 -4 -13 -8 -21 -10 -8 -1 -30 -16 -48 -34 l-33 -33
-27 28 c-15 16 -25 30 -23 32 2 3 14 -6 26 -19 l21 -23 36 40 c72 80 72 79 52
102 -10 12 -26 21 -35 21 -9 0 -16 8 -16 19 0 10 -7 21 -15 25 -8 3 -15 12
-15 19 0 22 -27 41 -34 25 -3 -7 -3 -3 0 10 4 16 1 22 -11 22 -9 0 -13 5 -10
10 3 6 2 10 -3 10 -5 0 -15 11 -22 25 -8 14 -19 24 -25 21 -6 -2 -17 5 -24 16
-7 11 -8 17 -2 14 15 -10 20 8 6 21 -10 10 -14 7 -19 -10 -5 -21 -26 -27 -67
-18 -9 1 -27 49 -33 86 -3 16 -18 39 -34 52 -26 20 -54 71 -32 58 5 -3 12 4
15 16 9 28 -22 64 -42 48 -17 -14 -19 -12 -26 28 -5 23 -3 31 6 29 7 -1 9 -1
4 1 -4 3 -5 9 -1 14 7 13 -10 11 -23 -2 -7 -7 -12 -6 -17 6 -3 9 -2 13 3 10 5
-3 13 0 17 7 4 7 4 10 -1 6 -16 -15 -43 13 -50 52 -4 22 -12 43 -18 47 -19 12
-47 14 -47 3 0 -6 -9 -10 -20 -10 -24 0 -26 13 -5 30 20 17 19 31 -2 23 -13
-5 -15 -2 -10 11 8 20 -10 49 -33 54 -18 4 -30 21 -30 45 0 9 -7 17 -15 17 -8
0 -12 6 -9 13 3 8 -2 20 -11 27 -8 7 -15 10 -15 6 0 -3 -11 -1 -25 4 l-25 10
16 -38 c9 -20 19 -46 22 -57 3 -11 8 -22 11 -25 14 -12 41 -70 40 -87 0 -20
-36 47 -75 142 -14 33 -29 69 -34 80 -33 70 -83 206 -114 305 -187 606 -207
1115 -70 1795 19 93 34 175 34 182 0 6 -34 28 -75 49 -41 21 -75 41 -75 46 0
11 49 155 102 303 42 116 196 455 211 466 5 4 6 12 2 19 -6 9 -4 11 4 5 9 -5
12 -1 9 14 -1 12 -7 23 -13 24 -14 3 -162 -294 -214 -428 -23 -60 -63 -171
-88 -245 -25 -74 -54 -142 -64 -151 -11 -10 -16 -24 -12 -37 2 -11 -2 -44 -10
-74 -37 -130 -88 -421 -103 -590 -3 -43 -10 -78 -14 -78 -11 0 -12 -400 0
-560 30 -429 131 -827 317 -1249 74 -169 193 -401 250 -486 42 -62 76 -125 70
-125 -3 0 -28 36 -57 80 -29 44 -57 80 -63 80 -6 0 -7 3 -4 6 4 4 -2 19 -13
34 -11 16 -52 92 -91 169 -42 85 -75 138 -81 134 -7 -4 -8 -1 -4 6 10 15 -53
163 -65 155 -5 -3 -6 2 -3 11 4 8 0 25 -8 38 -8 12 -20 41 -27 65 -6 23 -15
41 -19 38 -4 -2 -8 6 -8 17 -1 12 -11 47 -23 77 -11 30 -21 64 -22 75 -1 16
-2 15 -8 -5 -10 -37 -53 -39 -76 -4 -13 20 -14 28 -5 34 7 5 10 15 7 23 -3 9
0 18 8 21 9 3 12 0 8 -10 -3 -7 0 -14 6 -14 6 0 11 15 12 33 0 26 2 28 8 12 5
-11 6 -26 4 -32 -3 -7 0 -13 6 -13 6 0 11 8 11 18 -1 25 -34 95 -53 111 -10 7
-17 18 -17 23 0 6 7 5 15 -2 19 -16 19 -1 -1 25 -13 17 -16 18 -24 5 -8 -13
-10 -12 -10 3 0 10 -4 15 -10 12 -6 -3 -7 1 -4 9 3 9 10 13 15 10 12 -7 10 4
-7 46 l-14 35 5 -35 c5 -32 4 -33 -6 -10 -5 14 -8 36 -6 49 3 16 -4 31 -22 50
-15 14 -32 39 -40 55 -10 24 -14 27 -22 15 -6 -9 -9 -10 -9 -1 0 6 -7 12 -15
12 -8 0 -15 3 -15 8 0 4 -3 18 -6 32 -5 21 -4 23 8 10 22 -25 38 -22 38 6 0
22 -4 26 -22 22 -21 -4 -23 -1 -19 39 2 28 -1 43 -9 43 -7 0 -10 14 -9 38 3
28 10 41 32 55 16 10 27 21 24 24 -4 3 -13 -2 -22 -11 -26 -26 -64 -19 -78 14
-10 23 4 -132 14 -158 5 -13 9 -39 9 -58 0 -19 5 -34 10 -34 6 0 10 -22 10
-49 0 -27 7 -83 16 -126 20 -96 12 -109 -11 -18 -100 399 -120 957 -51 1413
82 532 222 943 478 1398 59 105 207 319 297 428 64 78 108 130 139 161 18 19
30 38 27 44 -4 5 -2 8 3 7 12 -4 298 282 294 293 -1 5 2 8 7 7 8 -3 90 66 157
130 7 6 15 12 19 12 12 0 140 112 138 120 -2 5 3 7 10 4 7 -2 27 9 45 26 18
16 35 30 37 30 2 0 39 24 82 53 111 76 247 158 326 197 37 19 67 38 67 42 0 5
6 8 14 8 21 0 146 61 146 71 0 5 3 8 8 8 25 -4 41 4 47 22 5 16 10 18 21 8 11
-9 20 -8 40 6 21 13 24 19 13 26 -8 5 -9 9 -3 9 5 0 15 -5 21 -11 13 -13 36
-2 27 12 -3 6 0 10 7 8 8 -1 23 -1 34 0 15 1 17 3 7 10 -19 12 41 54 79 55 27
1 28 2 12 14 -16 12 -13 13 22 8 26 -4 33 -3 21 2 -19 8 -19 9 2 14 18 5 22
13 22 47 0 38 2 41 26 41 15 0 35 10 46 22 l20 23 -7 -30 c-7 -30 -7 -30 9 -8
9 13 22 36 27 52 11 32 44 50 61 33 7 -7 15 -6 26 4 8 8 11 18 8 22 -4 3 -11
0 -16 -8 -5 -8 -11 -12 -14 -10 -2 3 7 18 20 34 14 15 28 25 32 22 3 -4 0 -11
-8 -17 -13 -8 -13 -10 0 -19 27 -17 37 -10 45 31 6 30 14 36 25 19 5 -8 12
-11 17 -7 4 5 1 12 -7 18 -13 8 -13 10 0 18 8 6 11 13 7 18 -5 4 -12 1 -17 -7
-11 -18 -25 -6 -17 15 4 8 16 15 28 15 15 0 19 5 15 15 -3 9 0 15 10 15 8 0
12 5 9 10 -3 6 -1 10 4 10 6 0 11 9 11 19 0 14 5 18 20 14 15 -4 20 0 20 16 0
11 4 21 8 21 5 0 15 11 22 25 8 15 20 23 27 20 8 -2 11 0 8 5 -3 6 -1 10 4 10
6 0 11 14 11 30 0 20 5 30 15 30 21 0 65 48 65 70 0 12 15 28 40 42 28 16 40
30 40 46 0 13 6 22 15 22 8 0 19 9 25 20 6 11 15 18 19 16 4 -3 17 1 27 9 17
13 14 14 -33 15 -45 0 -53 3 -53 19 0 17 10 18 133 17 72 -1 137 2 142 7 6 4
19 14 30 22 18 13 12 14 -62 15 -46 0 -83 4 -83 9 0 10 260 38 365 38 l40 0
-42 -4z m437 -21 c0 -4 -18 -6 -40 -4 -22 2 -40 6 -40 8 0 2 18 4 40 4 22 0
40 -3 40 -8z m-1040 -162 c0 -11 -7 -20 -15 -20 -18 0 -19 12 -3 28 16 16 18
15 18 -8z m-40 -150 c0 -5 -7 -10 -16 -10 -8 0 -12 5 -9 10 3 6 10 10 16 10 5
0 9 -4 9 -10z m1480 -39 c0 -6 -10 -8 -21 -6 -33 6 -36 15 -6 15 15 0 27 -4
27 -9z m425 -361 c-3 -5 -2 -10 4 -10 15 0 32 -36 25 -54 -3 -9 -12 -16 -20
-16 -8 0 -13 -3 -11 -7 1 -5 -2 -9 -8 -10 -5 -2 -10 1 -10 6 0 5 -10 21 -22
34 -20 24 -20 26 -5 40 14 12 33 22 50 26 2 1 0 -3 -3 -9z m-2312 -50 c-3 -11
-9 -17 -15 -14 -5 3 -4 12 3 20 16 19 18 18 12 -6z m2771 -96 c9 -8 16 -20 16
-26 0 -16 -31 -48 -46 -48 -34 0 -61 71 -31 83 24 10 46 7 61 -9z m-3179 -24
c4 -6 11 -7 17 -4 5 4 2 -5 -7 -20 -10 -14 -26 -26 -36 -26 -28 0 -36 30 -14
46 22 17 32 17 40 4z m165 -5 c0 -8 -4 -15 -10 -15 -5 0 -10 7 -10 15 0 8 5
15 10 15 6 0 10 -7 10 -15z m3590 -249 c0 -13 -9 -31 -19 -40 -18 -17 -20 -17
-40 3 -27 27 -27 55 2 68 29 14 57 -1 57 -31z m-3885 24 c-3 -5 -10 -10 -16
-10 -5 0 -9 5 -9 10 0 6 7 10 16 10 8 0 12 -4 9 -10z m-429 -14 c19 -19 18
-30 -5 -50 -15 -14 -24 -15 -40 -6 -26 13 -27 45 -3 59 23 14 31 13 48 -3z
m394 -6 c0 -5 -4 -10 -10 -10 -5 0 -10 5 -10 10 0 6 5 10 10 10 6 0 10 -4 10
-10z m-610 -214 c0 -42 -45 -62 -70 -31 -16 19 -3 54 23 64 27 11 47 -4 47
-33z m-260 -187 c0 -19 -33 -35 -50 -24 -13 8 -13 31 1 56 10 20 11 20 30 3
10 -9 19 -25 19 -35z m1665 -19 c-11 -5 -27 -9 -35 -9 -9 0 -8 4 5 9 11 5 27
9 35 9 9 0 8 -4 -5 -9z m221 -106 c1 -9 0 -13 -4 -10 -3 4 -7 14 -8 22 -1 9 0
13 4 10 3 -4 7 -14 8 -22z m3562 14 c14 -14 16 -42 2 -33 -5 3 -10 -1 -10 -9
0 -19 -35 -21 -47 -3 -25 39 22 78 55 45z m-5619 -22 c14 -17 5 -43 -20 -56
-14 -8 -21 -6 -29 11 -9 16 -8 24 6 40 20 23 28 24 43 5z m2321 -115 c-5 -11
-10 -29 -10 -40 0 -32 -15 -32 -39 -1 -17 24 -18 28 -4 23 10 -4 14 -3 9 5 -4
7 1 10 13 7 11 -2 22 3 25 11 3 8 8 14 11 14 3 0 1 -9 -5 -19z m15 -40 c0 -17
-6 -36 -12 -42 -10 -10 -13 -10 -13 -1 0 7 5 12 11 12 6 0 8 9 4 20 -5 16 0
40 8 40 1 0 2 -13 2 -29z m1580 -75 c14 -182 -12 -234 -142 -285 -49 -19 -53
-19 -53 -3 -1 16 -1 16 -14 -1 -12 -16 -16 -12 -36 35 -18 41 -21 62 -15 102
3 28 7 62 7 76 0 14 3 19 5 12 3 -6 9 -10 13 -7 5 3 7 11 4 18 -2 7 6 22 18
33 l23 19 -20 -25 c-14 -16 -6 -13 25 12 42 34 156 105 172 107 3 1 9 -41 13
-93z m-2180 -10 c16 -16 29 -33 28 -38 -2 -4 3 -8 10 -8 8 0 22 -9 32 -20 12
-13 14 -20 5 -20 -10 0 -10 -3 0 -15 7 -8 17 -12 23 -8 5 3 7 1 3 -5 -3 -6 -2
-14 4 -17 6 -4 10 -14 9 -23 -3 -32 1 -43 13 -36 7 4 8 3 4 -4 -4 -6 0 -36 9
-66 13 -43 14 -63 5 -95 -12 -45 -66 -96 -112 -106 -15 -4 -28 -11 -28 -16 0
-22 -16 -6 -18 19 -1 15 -4 36 -6 47 -3 11 -5 34 -6 50 0 26 -2 28 -11 12 -6
-11 -8 -34 -4 -54 4 -20 2 -33 -3 -29 -5 3 -7 -6 -4 -21 5 -25 4 -26 -33 -20
-21 3 -55 18 -76 32 -66 46 -85 118 -54 205 17 47 19 62 7 42 -5 -7 -7 5 -6
28 2 49 7 56 25 33 8 -9 9 -14 4 -11 -6 4 -11 -2 -11 -13 0 -10 1 -19 3 -19 9
0 34 64 29 75 -3 8 6 35 20 60 28 50 43 62 19 15 -9 -16 -13 -30 -11 -30 11 0
36 61 30 72 -4 6 -3 8 3 5 6 -4 16 7 23 26 l12 32 16 -25 c9 -14 30 -38 47
-54z m135 -68 c0 -4 5 -19 12 -35 14 -35 17 -73 5 -73 -5 0 -7 10 -4 23 6 22
6 22 -10 2 -15 -19 -15 -19 -9 -1 6 17 -16 95 -34 121 -4 6 -10 24 -14 40 -5
25 -1 21 24 -20 16 -27 30 -53 30 -57z m2184 -102 c-3 -15 -8 -25 -11 -23 -2
3 -1 17 3 31 3 15 8 25 11 23 2 -3 1 -17 -3 -31z m-2541 -50 c1 -22 -6 -43
-17 -54 -16 -16 -17 -16 -6 12 8 23 7 38 -5 68 -20 51 -19 56 6 31 13 -12 21
-34 22 -57z m2616 -12 c1 5 7 4 14 -2 21 -18 94 -31 106 -19 14 14 25 2 17
-19 -4 -10 -12 -14 -24 -9 -13 5 -14 3 -5 -6 7 -7 19 -9 30 -4 10 5 21 7 26 7
4 -1 7 3 7 8 0 6 5 10 10 10 12 0 9 -22 -5 -32 -5 -4 4 -8 21 -8 16 0 35 5 41
11 7 7 13 7 17 1 3 -6 -1 -18 -10 -26 -15 -15 -14 -16 13 -16 15 0 39 -1 53
-3 14 -3 32 -5 40 -6 8 -1 24 -14 34 -29 l19 -27 -26 24 c-15 14 -29 22 -32
19 -3 -2 15 -19 38 -36 85 -61 128 -216 93 -337 -14 -45 -29 -69 -70 -110 -74
-74 -122 -96 -221 -103 -114 -7 -169 13 -244 87 -87 85 -113 194 -76 316 8 27
11 53 8 58 -3 6 -1 7 5 3 16 -10 15 7 0 23 -10 11 -10 13 0 7 8 -5 12 0 12 14
0 12 11 38 25 58 25 37 31 54 17 50 -4 -2 -20 7 -36 20 -32 24 -30 27 9 12 17
-7 24 -7 20 0 -3 6 -2 10 3 10 4 0 15 14 23 32 13 26 17 29 22 14 4 -10 3 -15
-3 -11 -6 3 -7 -1 -4 -9 3 -9 10 -14 14 -11 5 3 13 -3 19 -12 6 -10 11 -12 11
-6 0 9 12 6 36 -8 20 -11 39 -18 41 -15 10 10 -28 37 -54 39 -32 2 -53 23 -52
52 l0 20 9 -20 c5 -11 9 -16 9 -11z m-2752 -52 c7 -7 13 -18 13 -24 0 -13 -45
34 -60 62 -17 32 -11 34 12 4 13 -16 28 -35 35 -42z m103 31 c0 -7 -4 -13 -10
-13 -5 0 -10 12 -10 28 0 21 2 24 10 12 5 -8 10 -21 10 -27z m2810 27 c0 -5
-4 -10 -10 -10 -5 0 -10 5 -10 10 0 6 5 10 10 10 6 0 10 -4 10 -10z m-2840
-35 c0 -8 -4 -15 -9 -15 -5 0 -17 -3 -27 -7 -16 -6 -15 -4 2 14 23 26 34 28
34 8z m-117 -47 c15 -20 27 -40 27 -43 0 -10 37 -56 47 -58 4 -1 8 -6 8 -12 1
-13 21 -49 37 -67 7 -8 21 -29 32 -48 10 -19 32 -59 48 -87 43 -76 29 -65 -23
17 -24 39 -47 70 -51 70 -5 0 -8 5 -8 11 0 6 -13 29 -29 52 -26 39 -107 171
-126 207 -11 21 5 3 38 -42z m-1946 -23 c2 -6 -3 -20 -11 -30 -14 -19 -16 -19
-32 -3 -15 14 -15 20 -4 33 14 17 41 17 47 0z m2006 2 c4 3 7 1 7 -5 0 -18
-27 -14 -34 4 -5 13 -4 14 7 6 8 -7 17 -9 20 -5z m4821 -4 c9 -23 -33 -56 -51
-41 -14 11 -17 40 -6 51 13 14 51 7 57 -10z m-4899 -118 c18 -27 51 -79 73
-114 23 -36 42 -72 41 -80 0 -10 -5 -6 -12 9 -6 14 -14 27 -17 30 -21 17 -160
251 -160 267 0 4 10 -8 22 -27 12 -19 36 -57 53 -85z m-255 41 c0 -5 -7 -2
-16 5 -11 9 -10 2 6 -26 12 -22 30 -47 40 -56 11 -9 16 -19 13 -23 -4 -3 -2
-6 4 -6 6 0 10 11 9 24 0 13 -5 22 -10 18 -5 -3 -6 1 -1 8 5 8 2 17 -7 24 -17
13 -42 56 -35 62 2 3 21 -17 43 -43 21 -27 54 -64 73 -84 67 -68 106 -113 91
-105 -8 4 -6 0 5 -9 11 -9 19 -21 18 -26 -2 -5 2 -9 7 -9 6 0 10 -4 10 -10 0
-5 15 -31 34 -57 97 -136 113 -222 63 -325 -25 -50 -85 -118 -105 -118 -4 0
-19 55 -34 123 -15 67 -34 147 -42 177 l-15 55 5 -70 c5 -59 25 -203 39 -268
3 -15 -1 -17 -26 -12 -53 12 -153 56 -177 78 -46 43 -65 87 -65 146 0 31 8 73
17 93 16 36 15 38 -7 49 -23 12 -47 35 -82 79 -11 13 7 1 39 -28 33 -29 63
-52 66 -52 7 0 35 72 32 83 -1 5 1 6 6 3 5 -3 15 11 24 30 15 34 15 36 -7 58
-13 13 -22 26 -20 28 2 2 -18 34 -46 71 -27 37 -47 67 -45 67 2 0 32 -35 66
-77 34 -43 67 -77 72 -75 6 2 8 -5 4 -15 -5 -13 -4 -15 3 -8 14 14 -17 101
-59 168 -34 54 -35 58 -18 75 9 9 14 9 20 -1 4 -6 8 -16 8 -21z m2788 -19 c14
-13 22 -32 22 -54 0 -28 -6 -35 -40 -53 -46 -23 -83 -19 -105 13 -22 31 -18
70 8 94 41 38 73 38 115 0z m1081 0 c-2 -1 -13 -9 -24 -17 -19 -14 -19 -14 -6
3 7 9 18 17 24 17 6 0 8 -1 6 -3z m0 -52 c-40 -43 -69 -64 -37 -27 8 9 26 29
38 45 13 15 28 27 32 27 5 0 -10 -20 -33 -45z m-3639 -32 c0 -12 -49 35 -54
52 -4 14 3 10 24 -14 17 -18 30 -36 30 -38z m3575 -42 c-3 -6 -11 -8 -17 -5
-6 4 -5 9 3 15 16 10 23 4 14 -10z m-31 -40 c-1 -17 -2 -37 -3 -45 -1 -13 -58
-43 -65 -35 -2 2 -7 19 -11 36 -6 29 -2 37 26 63 37 34 55 28 53 -19z m-4034
10 c15 -29 12 -58 -6 -65 -31 -12 -51 -6 -62 19 -15 32 -15 31 4 49 21 22 51
20 64 -3z m533 -52 c-8 -8 -13 -7 -18 2 -5 8 -4 10 3 5 7 -4 12 -2 12 5 0 7 3
9 7 6 4 -4 2 -12 -4 -18z m-448 -39 c3 -5 2 -10 -4 -10 -5 0 -13 5 -16 10 -3
6 -2 10 4 10 5 0 13 -4 16 -10z m-10 -90 c10 -11 16 -20 13 -20 -3 0 -13 9
-23 20 -10 11 -16 20 -13 20 3 0 13 -9 23 -20z m-233 -42 c9 -1 14 -6 12 -10
-3 -4 0 -8 5 -8 6 0 23 -18 37 -40 23 -34 26 -48 22 -91 -7 -65 -33 -100 -88
-116 -44 -13 -116 -8 -126 8 -3 5 -10 7 -15 4 -5 -4 -9 -2 -9 4 0 6 -6 8 -14
5 -39 -15 -62 116 -31 176 14 28 52 64 75 73 13 5 73 3 132 -5z m4486 -15 c15
-11 35 -40 46 -65 26 -64 16 -112 -35 -160 -66 -63 -135 -59 -206 12 -70 69
-46 172 52 229 29 17 112 7 143 -16z m-4170 -39 c-4 -3 -12 5 -18 18 -12 22
-12 22 6 6 10 -10 15 -20 12 -24z m-1902 -62 c-2 -9 -10 -18 -19 -20 -18 -4
-21 6 -11 32 7 19 33 10 30 -12z m1279 2 c27 -17 33 -34 13 -34 -13 1 -55 50
-43 50 3 0 17 -7 30 -16z m3618 -109 c36 -112 28 -155 -39 -221 -31 -30 -58
-54 -59 -54 -8 0 10 90 25 133 10 26 14 47 9 47 -14 0 -26 -31 -39 -97 -7 -35
-15 -63 -18 -63 -18 0 -52 58 -58 96 -9 65 11 122 73 209 l55 77 18 -39 c9
-21 24 -60 33 -88z m2603 114 c10 -17 -13 -36 -27 -22 -12 12 -4 33 11 33 5 0
12 -5 16 -11z m-4847 -76 c21 -38 64 -107 93 -155 77 -121 86 -159 66 -279 -3
-14 -10 -34 -16 -45 -15 -25 -15 -10 -1 19 7 15 2 12 -15 -8 -14 -16 -25 -39
-26 -49 0 -33 -15 -6 -49 89 -32 90 -70 170 -71 149 0 -21 48 -170 74 -226 33
-72 33 -78 -1 -46 -16 15 -59 44 -98 66 -56 31 -75 47 -92 82 -44 84 -26 200
56 376 22 45 36 85 33 88 -3 3 -3 6 1 6 3 0 24 -30 46 -67z m-1663 -160 c-11
-11 -65 10 -87 33 -17 19 -19 23 -6 18 10 -4 17 -1 17 6 0 6 18 -3 40 -20 23
-18 39 -35 36 -37z m5572 45 c-21 -31 -51 -49 -67 -39 -10 6 -2 15 30 35 53
31 55 32 37 4z m-813 -75 c-3 -10 -11 -74 -16 -142 -15 -184 -56 -274 -154
-339 -75 -49 -131 -57 -287 -41 l-133 14 -93 -38 c-52 -21 -96 -36 -99 -34 -2
3 36 26 86 53 l91 48 0 60 c0 72 22 171 49 224 24 46 95 113 150 142 74 37
220 65 360 69 47 1 52 -1 46 -16z m-4615 -73 c0 -24 -15 -33 -40 -25 -24 8
-26 31 -3 43 22 13 43 4 43 -18z m5194 4 c7 -19 -9 -50 -33 -64 -16 -8 -21 -5
-31 20 -7 16 -10 36 -6 45 7 20 62 20 70 -1z m-5059 -99 c108 -73 104 -72 103
-23 -1 66 10 70 200 66 208 -4 196 8 187 -183 l-6 -140 -32 -27 c-36 -32 -70
-40 -45 -10 32 37 43 88 24 107 -12 13 -19 8 -48 -30 -36 -48 -45 -53 -54 -30
-4 10 -20 15 -49 15 -26 0 -47 6 -55 15 -9 11 -16 13 -23 6 -7 -7 -15 -5 -24
7 -13 16 -14 15 -8 -5 3 -13 0 -27 -9 -35 -12 -11 -10 -17 17 -45 34 -36 24
-44 -15 -13 -36 28 -58 80 -58 138 0 28 -4 62 -10 76 -5 13 -48 54 -96 90
-100 76 -99 88 1 21z m960 -69 c52 -22 84 -52 106 -101 20 -46 36 -169 23
-178 -5 -3 -45 21 -89 54 -44 32 -98 68 -120 79 -29 15 -34 16 -15 3 13 -10
69 -51 125 -92 57 -42 156 -101 233 -138 142 -70 191 -104 69 -48 -143 64
-226 85 -348 85 -154 0 -203 22 -241 110 -18 41 -57 205 -58 239 0 21 260 10
315 -13z m3712 -87 c-22 -13 -22 -32 1 -26 78 22 79 21 33 -16 -53 -42 -127
-85 -116 -67 4 7 2 16 -6 21 -12 8 -12 11 1 19 11 7 12 10 2 10 -8 0 -1 10 15
23 42 34 77 55 83 50 3 -2 -3 -9 -13 -14z m1582 -149 c1 -26 -16 10 -23 50
l-6 35 14 -35 c8 -19 15 -42 15 -50z m-6378 49 c61 -21 109 -80 109 -135 0
-15 -9 -47 -21 -70 -19 -41 -23 -43 -74 -49 -68 -9 -113 -1 -156 28 -96 65
-30 226 97 236 6 1 26 -4 45 -10z m5316 -45 c22 -22 24 -31 19 -66 -7 -46 -22
-64 -59 -73 -32 -8 -97 37 -97 67 0 11 -4 16 -11 13 -13 -9 10 33 35 63 27 31
79 30 113 -4z m-258 -139 c56 -20 97 -50 131 -96 35 -48 58 -135 41 -152 -9
-9 -14 -8 -21 3 -7 11 -10 3 -10 -28 0 -35 -4 -45 -20 -49 -20 -5 -34 -36 -30
-64 7 -47 -28 -79 -85 -79 -19 0 -29 -6 -32 -20 -9 -32 -45 -35 -88 -6 -40 27
-69 33 -80 16 -4 -6 -22 2 -46 21 -33 26 -39 36 -39 69 0 30 -6 41 -26 55 -14
9 -28 15 -30 13 -2 -3 -4 -32 -5 -66 -1 -34 -3 -62 -5 -62 -2 0 -13 19 -24 42
-58 120 -22 275 81 348 88 64 203 85 288 55z m-6506 -19 c8 -20 -21 -56 -38
-50 -8 4 -13 10 -10 14 3 5 -1 10 -7 13 -10 3 -10 7 1 20 16 21 47 22 54 3z
m8063 -1 c4 -8 3 -22 0 -32 -6 -14 -8 -14 -21 3 -13 16 -16 17 -25 4 -8 -12
-10 -11 -10 6 0 11 3 24 7 27 12 13 44 7 49 -8z m-7519 -70 c-80 -379 -95
-491 -109 -805 -11 -261 -11 -268 15 -480 15 -118 29 -231 33 -250 4 -25 3
-31 -5 -21 -5 8 -12 41 -16 72 -6 50 -9 57 -26 54 -15 -3 -19 2 -19 26 0 18 4
28 10 24 6 -3 10 -13 10 -22 0 -9 3 -14 6 -10 12 11 -6 57 -22 57 -12 0 -15 9
-12 37 2 22 -2 38 -9 40 -9 3 -13 -8 -13 -36 0 -23 -4 -41 -10 -41 -5 0 -10
18 -10 40 0 23 5 40 11 40 6 0 9 7 5 15 -3 8 1 21 9 29 8 7 16 26 19 41 5 27
4 27 -37 22 -23 -3 -34 -3 -24 0 17 4 17 6 2 17 -9 6 -17 21 -18 33 -2 35 -26
37 -25 3 1 -16 4 -27 8 -25 4 2 7 -35 8 -83 1 -48 6 -109 12 -137 5 -27 14
-95 21 -150 6 -55 16 -110 20 -122 5 -12 5 -25 0 -27 -10 -6 -56 276 -71 428
-27 294 6 770 82 1147 l31 156 64 -26 c53 -22 63 -29 60 -46z m541 -187 c16
-16 15 -40 -1 -62 -27 -36 -82 8 -66 52 9 24 47 30 67 10z m6572 2 c0 -5 -15
-10 -32 -11 -27 0 -29 -2 -13 -8 11 -5 27 -6 35 -3 11 4 11 1 -3 -12 -9 -10
-16 -30 -15 -45 3 -36 -8 -51 -40 -52 -24 -1 -23 -3 8 -9 l35 -7 -35 -3 c-25
-2 -29 -4 -12 -7 32 -6 27 -30 -8 -38 -37 -8 -43 -18 -42 -64 1 -19 -3 -38 -9
-42 -7 -4 -5 -12 6 -23 12 -12 13 -16 3 -16 -8 0 -9 -3 -3 -8 14 -10 16 -45 2
-54 -9 -6 -9 -8 1 -8 6 0 12 -7 12 -15 0 -8 -5 -15 -11 -15 -5 0 -7 5 -4 10 3
6 -1 10 -11 10 -13 0 -14 -3 -4 -15 7 -8 18 -15 25 -15 9 0 11 -41 10 -165 -1
-90 2 -162 7 -159 11 7 10 -4 -4 -43 -13 -36 -27 -43 -29 -15 -1 16 -2 16 -6
0 -2 -10 -9 -18 -15 -18 -7 0 -9 -19 -5 -55 5 -48 3 -56 -14 -65 -10 -6 -19
-20 -19 -31 0 -11 -4 -18 -9 -14 -6 3 -11 -12 -13 -32 -2 -21 -8 -37 -13 -36
-7 1 -9 -13 -7 -35 2 -28 1 -33 -7 -22 -8 12 -11 6 -11 -25 0 -23 -4 -45 -10
-51 -5 -5 -11 -28 -14 -49 -2 -22 -6 -47 -9 -55 -3 -8 -15 -58 -27 -110 -12
-52 -28 -112 -36 -133 l-14 -38 47 -20 c92 -39 90 -38 70 -38 -10 -1 -42 8
-72 18 l-54 19 -20 -52 c-10 -28 -21 -62 -22 -76 -2 -14 -8 -28 -14 -32 -13
-10 6 -23 65 -45 50 -18 67 -30 57 -39 -3 -3 -31 6 -62 20 -30 15 -60 24 -65
21 -4 -3 -16 -29 -26 -58 -34 -102 -216 -482 -227 -471 -2 2 -10 -16 -17 -41
-7 -25 -18 -45 -26 -45 -17 0 -86 -111 -79 -128 3 -7 1 -10 -5 -7 -9 6 -36
-34 -32 -47 1 -5 -5 -8 -13 -8 -8 0 -15 -4 -15 -9 0 -12 -63 -100 -107 -151
-18 -21 -33 -40 -33 -43 0 -3 -10 -17 -22 -30 -13 -13 -45 -50 -73 -83 -27
-32 -76 -87 -109 -121 -49 -53 -57 -65 -46 -78 17 -21 3 -19 -25 3 l-23 18 67
71 c287 302 537 680 676 1023 209 511 276 841 276 1350 0 244 -11 427 -31 554
-5 33 -7 62 -4 65 6 7 280 69 307 70 9 1 17 -3 17 -9z m165 0 c-3 -5 -10 -10
-16 -10 -5 0 -9 5 -9 10 0 6 7 10 16 10 8 0 12 -4 9 -10z m-805 -15 c20 -24
-3 -65 -35 -65 -18 0 -26 7 -31 25 -11 45 37 74 66 40z m750 -50 c0 -8 -2 -15
-4 -15 -2 0 -6 7 -10 15 -3 8 -1 15 4 15 6 0 10 -7 10 -15z m-7834 -20 c-14
-14 -16 -14 -16 -2 0 9 6 17 13 20 19 7 21 -1 3 -18z m8183 -7 c-1 -18 -2 -19
-6 -5 -2 9 -9 15 -14 12 -5 -4 -9 -1 -9 4 0 6 7 11 15 11 9 0 15 -9 14 -22z
m-337 -20 c-7 -7 -12 -8 -12 -2 0 14 12 26 19 19 2 -3 -1 -11 -7 -17z m34 -36
c-10 -2 -22 0 -28 6 -6 6 0 7 19 4 21 -5 23 -7 9 -10z m-5 -30 c-7 -2 -18 1
-23 6 -8 8 -4 9 13 5 13 -4 18 -8 10 -11z m-156 -2 c3 -5 -1 -10 -10 -10 -9 0
-13 5 -10 10 3 6 8 10 10 10 2 0 7 -4 10 -10z m311 -39 c-3 -5 -45 -16 -94
-26 -61 -11 -89 -21 -89 -31 0 -10 4 -11 13 -3 12 10 124 26 114 17 -3 -3 -16
-11 -29 -18 -18 -9 -22 -9 -16 0 5 9 1 10 -16 5 -40 -12 -49 -33 -44 -99 23
-297 13 -634 -26 -888 -33 -216 -33 -219 -18 -229 8 -5 40 -16 72 -25 32 -9
60 -21 63 -25 8 -14 -19 -11 -87 11 -34 11 -66 17 -71 12 -4 -4 -19 -57 -32
-117 -39 -171 -124 -434 -181 -559 -14 -30 -25 -58 -25 -61 0 -3 -11 -30 -24
-58 -13 -29 -30 -67 -37 -84 -8 -18 -17 -33 -21 -33 -5 0 -8 -7 -8 -16 0 -8
-13 -34 -29 -57 -15 -23 -46 -75 -67 -114 -21 -40 -45 -73 -52 -73 -10 0 -9 8
6 33 257 428 427 925 498 1452 22 166 26 731 6 869 -7 48 -12 90 -10 92 4 4
157 31 186 33 13 0 21 -3 18 -8z m-257 -35 c-2 -2 -33 -6 -69 -9 -40 -4 -57
-2 -45 3 19 8 123 14 114 6z m-6442 -52 c57 -36 76 -135 36 -181 -26 -29 -125
-54 -137 -34 -4 6 -13 8 -22 4 -22 -8 -63 35 -70 75 -22 115 96 197 193 136z
m6573 -4 c0 -11 -4 -20 -10 -20 -5 0 -10 9 -10 20 0 11 5 20 10 20 6 0 10 -9
10 -20z m-6880 -99 c0 -4 -11 -6 -25 -3 -14 2 -25 6 -25 8 0 2 11 4 25 4 14 0
25 -4 25 -9z m5075 -11 c4 -7 -2 -9 -18 -5 -19 5 -29 0 -46 -21 -11 -15 -21
-21 -21 -14 0 36 68 67 85 40z m35 -55 c0 -13 -4 -26 -8 -29 -5 -3 -8 10 -8
29 1 37 16 37 16 0z m-384 5 c23 -5 72 -23 108 -40 l67 -31 -61 -57 c-34 -31
-75 -65 -92 -74 -30 -16 -32 -16 -77 7 -25 13 -59 34 -76 45 l-30 22 65 -6
c36 -4 79 -9 95 -12 23 -4 26 -3 15 5 -11 8 -5 9 25 5 30 -4 36 -3 25 5 -12 9
-10 11 12 11 15 0 29 3 31 8 10 14 -276 -4 -322 -22 -24 -9 -46 -14 -49 -12
-7 8 54 81 93 111 57 43 99 52 171 35z m-4697 -16 c3 -2 0 -9 -6 -15 -8 -8
-25 -8 -60 -1 -26 6 -68 15 -93 20 -35 7 -23 8 55 5 54 -2 101 -6 104 -9z
m4981 -39 c0 -5 -5 -3 -10 5 -5 8 -10 20 -10 25 0 6 5 3 10 -5 5 -8 10 -19 10
-25z m847 25 c51 -18 68 -79 33 -122 -26 -34 -67 -41 -91 -17 -18 18 -18 22
-5 54 13 30 13 35 1 35 -22 0 -38 -39 -32 -76 6 -38 5 -40 -17 -18 -18 18 -21
76 -5 105 6 12 25 27 42 34 39 17 37 17 74 5z m-4401 -31 c22 -11 65 -44 95
-75 54 -55 54 -55 18 -40 -52 22 -181 35 -274 29 -77 -5 -82 -4 -117 23 -21
16 -37 32 -38 36 0 6 92 37 155 52 34 8 118 -6 161 -25z m4734 11 c-36 -4 -85
-8 -110 -7 l-45 0 40 7 c22 4 72 7 110 7 l70 0 -65 -7z m-7283 -125 c1 -5 -2
-17 -8 -25 -8 -11 -12 -12 -16 -2 -2 6 -12 12 -20 12 -13 0 -13 3 -3 15 14 17
41 17 47 0z m2543 10 c0 -4 -36 -22 -60 -30 -80 -24 -90 -25 -118 -11 -66 34
-57 41 64 44 63 2 114 1 114 -3z m5798 -23 c2 -12 -1 -22 -7 -22 -6 0 -11 5
-11 10 0 6 -7 10 -15 10 -16 0 -20 12 -8 24 14 13 38 1 41 -22z m-5730 9 c31
-19 -126 -83 -164 -66 -16 6 -12 10 21 18 22 5 56 21 75 33 38 26 48 28 68 15z
m5228 -157 c8 -32 -13 -56 -45 -52 -20 2 -27 9 -29 33 -6 53 61 71 74 19z
m227 -136 c14 -22 -6 -68 -31 -68 -10 0 -25 13 -34 28 -16 27 -16 30 0 46 20
20 51 17 65 -6z m-5358 -28 c25 -11 -1 -11 -35 0 -20 6 -21 8 -5 8 11 0 29 -3
40 -8z m-1579 -44 c7 -30 -1 -46 -25 -46 -29 0 -45 25 -31 49 15 29 48 27 56
-3z m6094 9 c16 -19 3 -55 -20 -55 -25 0 -41 29 -29 52 12 22 32 23 49 3z
m-603 -37 c-3 -7 -5 -2 -5 12 0 14 2 19 5 13 2 -7 2 -19 0 -25z m1426 -25 c-7
-2 -21 -2 -30 0 -10 3 -4 5 12 5 17 0 24 -2 18 -5z m12 -83 c3 -6 -4 -10 -17
-10 -18 0 -20 2 -8 10 19 12 18 12 25 0z m-6891 -86 c11 -27 7 -43 -14 -54
-39 -21 -79 27 -48 58 17 17 55 15 62 -4z m6009 -5 c16 -26 1 -49 -32 -49 -33
0 -46 22 -30 51 12 24 47 22 62 -2z m-4100 -13 c64 -24 171 -85 164 -93 -3 -2
-27 -10 -53 -18 -143 -40 -336 -128 -461 -211 -45 -30 -83 -57 -83 -59 0 -2
73 34 163 80 89 46 227 109 307 141 136 54 151 58 240 61 l95 2 -78 -18 c-43
-10 -83 -23 -89 -29 -6 -6 -18 -8 -27 -5 -12 3 -13 2 -3 -4 10 -8 10 -17 -2
-50 -22 -63 -53 -119 -88 -158 -33 -38 -115 -86 -145 -84 -12 1 -10 3 7 9 14
4 19 8 13 9 -7 1 -13 6 -13 12 0 7 10 9 25 7 14 -3 28 -1 32 5 3 6 1 7 -5 3
-18 -11 -15 26 4 52 8 12 11 22 6 22 -5 0 -13 17 -18 37 -5 20 -15 38 -22 41
-8 2 -10 -2 -5 -14 4 -11 3 -15 -4 -11 -6 4 -13 0 -17 -8 -3 -8 -11 -12 -18
-10 -9 4 -25 -17 -46 -57 -51 -98 -64 -110 -109 -103 -38 7 -226 55 -231 59
-5 5 55 192 73 226 84 164 228 226 388 166z m2334 14 c90 -20 193 -122 221
-220 5 -19 21 -66 36 -104 14 -37 26 -70 26 -72 0 -2 -32 21 -71 51 -125 94
-283 161 -494 212 -41 10 -75 20 -75 23 0 10 99 70 147 89 81 32 134 37 210
21z m2636 3 c-7 -2 -21 -2 -30 0 -10 3 -4 5 12 5 17 0 24 -2 18 -5z m-1959
-98 c71 -42 76 -54 16 -43 -75 13 -114 33 -144 72 l-26 35 54 -19 c30 -10 75
-30 100 -45z m-3754 22 c-20 -17 -48 -37 -62 -44 -30 -14 -128 -29 -128 -20 0
21 157 95 205 96 17 1 14 -4 -15 -32z m5703 -4 c-7 -2 -19 -2 -25 0 -7 3 -2 5
12 5 14 0 19 -2 13 -5z m-7486 -35 c-3 -8 -6 -5 -6 6 -1 11 2 17 5 13 3 -3 4
-12 1 -19z m40 0 c-3 -8 -6 -5 -6 6 -1 11 2 17 5 13 3 -3 4 -12 1 -19z m4580
-57 c76 -27 176 -65 222 -85 100 -42 271 -136 271 -148 0 -5 -18 1 -40 12 -32
16 -44 18 -61 9 -16 -8 -24 -8 -33 2 -8 9 -8 10 1 5 6 -3 19 -3 28 0 16 6 16
8 1 16 -9 5 -21 6 -28 2 -7 -4 -8 -3 -4 4 8 14 -37 34 -58 26 -7 -3 -17 3 -20
13 -7 17 -8 17 -22 -1 -20 -28 -18 -34 20 -50 19 -8 40 -24 46 -36 10 -18 18
-21 43 -16 24 4 28 3 17 -5 -11 -8 -6 -9 20 -5 34 5 34 5 -5 -8 -23 -8 -60
-17 -84 -21 -35 -6 -42 -5 -37 6 4 8 1 6 -7 -4 -15 -18 -16 -18 -36 2 -12 12
-21 28 -21 37 0 8 -13 35 -30 59 -16 24 -30 48 -30 53 0 16 -45 62 -61 62 -8
0 -25 -7 -37 -16 -27 -19 -28 -70 -1 -68 19 1 14 -39 -7 -57 -23 -19 -16 -29
24 -30 32 -1 34 -2 12 -9 -23 -6 -22 -8 15 -14 61 -11 75 -19 41 -24 -41 -5
-148 50 -184 96 -33 42 -68 108 -74 137 -1 11 -7 25 -11 30 -4 6 -14 19 -21
29 -8 12 -36 24 -72 32 l-59 12 72 1 c62 1 91 -6 210 -48z m1262 -5 c9 -11 7
-15 -8 -19 -22 -5 -31 0 -31 20 0 17 24 17 39 -1z m-4529 -6 c0 -5 -7 -7 -15
-4 -8 4 -15 8 -15 10 0 2 7 4 15 4 8 0 15 -4 15 -10z m-1590 -49 c0 -11 -4
-10 -15 5 -8 10 -14 26 -14 34 0 11 3 10 14 -4 8 -11 15 -27 15 -35z m7680 19
c0 -5 -4 -10 -10 -10 -5 0 -10 5 -10 10 0 6 5 10 10 10 6 0 10 -4 10 -10z
m-7940 -36 c0 -8 -7 -14 -15 -14 -15 0 -21 21 -9 33 10 9 24 -2 24 -19z m1208
-26 c-5 -34 -32 -44 -62 -25 -28 19 -26 39 7 54 30 14 59 -2 55 -29z m-943
-22 c-1 -62 -10 -65 -12 -5 -1 27 1 49 5 49 4 0 7 -20 7 -44z m49 29 c3 -8 1
-25 -5 -37 -9 -21 -9 -21 -6 -2 3 12 0 29 -5 38 -5 10 -5 16 0 16 6 0 12 -7
16 -15z m153 -7 c-3 -8 -6 -5 -6 6 -1 11 2 17 5 13 3 -3 4 -12 1 -19z m142
-18 c0 -10 -3 -8 -9 5 -12 27 -12 43 0 25 5 -8 9 -22 9 -30z m-121 -65 c0 -16
-2 -15 -8 5 -4 14 -8 34 -8 45 0 16 2 15 8 -5 4 -14 8 -34 8 -45z m1224 40
c82 -29 139 -106 137 -187 -1 -23 -3 -35 -6 -25 -2 9 -11 17 -19 17 -8 0 -14
5 -14 10 0 6 -7 10 -15 10 -9 0 -18 7 -21 15 -12 31 -22 13 -11 -21 7 -25 8
-47 0 -74 -9 -35 -8 -39 14 -51 26 -14 27 -36 2 -52 -13 -8 -23 -5 -44 11 -35
28 -53 28 -57 0 l-3 -23 -22 23 c-14 13 -35 22 -54 22 -20 0 -40 10 -60 29
-24 24 -29 38 -30 78 0 39 -2 44 -9 26 -5 -13 -12 -23 -15 -23 -4 0 -3 4 0 10
3 5 0 7 -8 5 -14 -6 -36 -59 -38 -91 0 -13 -5 -8 -16 15 -29 67 9 188 73 237
68 53 138 65 216 39z m-1087 -46 c9 -28 14 -53 11 -56 -6 -7 -20 27 -31 75
-10 49 1 38 20 -19z m7308 4 c-7 -2 -19 -2 -25 0 -7 3 -2 5 12 5 14 0 19 -2
13 -5z m-1306 -35 c42 -29 73 -92 72 -144 -1 -25 -3 -30 -6 -14 -4 29 -24 70
-32 70 -3 0 -14 -25 -24 -56 -19 -56 -19 -56 2 -75 21 -20 21 -20 33 6 6 14
15 25 20 25 10 0 10 4 -6 -49 -7 -25 -17 -46 -22 -48 -6 -2 -21 11 -34 29 -18
24 -24 44 -23 75 1 24 -3 46 -9 50 -7 4 -9 0 -5 -10 3 -9 2 -19 -3 -22 -6 -4
-10 1 -10 9 0 9 -1 16 -2 16 -86 13 -109 3 -111 -47 -1 -17 -5 -29 -9 -27 -10
7 -10 1 2 -31 8 -22 7 -27 -11 -34 -20 -7 -20 -9 -5 -23 25 -26 19 -32 -13
-11 -130 83 -117 259 24 325 51 24 124 18 172 -14z m960 10 c-3 -8 -6 -5 -6 6
-1 11 2 17 5 13 3 -3 4 -12 1 -19z m-7090 -30 c-3 -7 -5 -2 -5 12 0 14 2 19 5
13 2 -7 2 -19 0 -25z m2920 21 c41 -15 70 -47 89 -96 16 -40 16 -46 0 -85 -23
-60 -59 -84 -121 -81 -27 1 -59 4 -70 7 -11 2 -23 5 -27 5 -4 1 -19 18 -33 38
-48 72 -23 166 55 205 40 21 67 22 107 7z m2775 -44 c21 -14 38 -26 38 -28 0
-1 -30 -2 -67 -2 -64 1 -85 7 -142 39 -21 13 -22 15 -5 19 42 13 138 -3 176
-28z m-4047 1 c-11 -7 -30 -16 -43 -20 -12 -4 -20 -10 -18 -14 2 -4 -12 -8
-33 -9 -20 -1 -53 -4 -73 -7 -21 -3 -38 -4 -38 -2 0 2 21 18 47 35 40 27 55
31 112 31 58 0 63 -1 46 -14z m2796 -35 c34 -33 39 -45 39 -83 0 -65 -42 -120
-103 -138 -43 -12 -49 -11 -90 13 -45 27 -77 75 -77 117 0 68 70 129 149 130
37 0 49 -5 82 -39z m-2044 12 c0 -7 -4 -13 -8 -13 -4 0 -9 6 -12 13 -3 8 0 14
7 14 7 0 13 -6 13 -14z m4668 -15 c-10 -51 -16 -70 -21 -65 -6 5 16 97 23 97
3 0 2 -15 -2 -32z m-1968 -114 c9 -23 -6 -63 -27 -74 -28 -15 -55 -5 -68 26
-17 36 -15 42 20 64 33 20 63 14 75 -16z m965 19 c23 -21 23 -45 -1 -67 -41
-37 -94 15 -63 61 17 27 39 29 64 6z m-3865 -19 c15 -24 15 -29 2 -53 -21 -37
-61 -40 -88 -5 -26 33 -26 39 -1 64 28 28 66 26 87 -6z m-1427 -45 c0 -23 -28
-26 -37 -3 -6 16 15 37 29 28 4 -3 8 -14 8 -25z m5680 -4 c0 -26 -14 -31 -39
-16 -19 12 -6 41 19 41 15 0 20 -7 20 -25z m-328 -39 c16 -11 16 -15 2 -34
-16 -24 -43 -29 -61 -11 -6 6 -17 8 -24 3 -9 -5 -8 -9 7 -15 14 -6 11 -8 -16
-8 -74 -1 -79 32 -6 43 24 4 50 14 56 21 15 18 20 18 42 1z m875 -8 c-3 -8 -6
-5 -6 6 -1 11 2 17 5 13 3 -3 4 -12 1 -19z m-5105 -44 c39 -20 76 -63 93 -109
14 -35 14 -46 1 -85 -9 -28 -14 -37 -15 -23 -1 12 -5 25 -11 28 -5 3 -10 16
-10 28 0 16 -6 23 -20 24 -11 1 -20 -3 -20 -9 0 -6 -15 -27 -32 -48 -18 -20
-38 -45 -44 -55 -10 -18 -12 -18 -35 -3 -13 9 -45 36 -71 60 l-46 43 -16 -36
c-9 -20 -16 -42 -17 -50 -1 -23 -28 44 -28 71 -1 37 32 101 67 135 56 53 135
64 204 29z m-1692 -49 c-19 -23 -57 -19 -66 7 -5 16 -1 27 16 40 22 18 23 17
42 -7 16 -21 18 -28 8 -40z m5270 30 c37 -19 77 -71 84 -110 6 -26 5 -27 -4
-10 -28 52 -136 67 -190 27 -54 -40 -30 -139 32 -130 15 3 25 1 22 -4 -3 -4
-18 -8 -34 -8 -34 0 -66 45 -72 100 -3 33 0 37 42 59 35 18 39 22 16 16 -40
-9 -83 -41 -92 -68 -4 -12 -17 -34 -30 -50 -22 -26 -24 -27 -34 -8 -5 11 -10
27 -10 35 0 10 -6 13 -15 10 -8 -4 -12 -10 -9 -15 3 -5 -3 -6 -12 -2 -13 5
-15 3 -9 -7 5 -8 4 -11 -3 -6 -6 3 -77 -22 -159 -57 -169 -73 -222 -92 -243
-89 -13 3 -13 2 0 -7 14 -10 7 -15 -13 -12 -5 1 -6 -2 -4 -6 3 -5 -1 -13 -8
-20 -10 -10 -14 -9 -19 3 -3 8 -10 13 -16 9 -12 -8 -25 44 -14 55 5 5 34 11
64 14 65 6 96 17 250 86 63 29 123 54 132 57 10 3 16 8 14 12 -3 4 3 7 12 8
49 4 58 10 78 54 12 25 30 49 40 53 11 4 35 13 54 21 40 17 106 13 150 -10z
m-2837 -113 c74 -31 98 -47 148 -99 32 -35 56 -63 53 -63 -3 0 -29 20 -57 44
-31 26 -115 74 -209 119 -87 42 -158 79 -158 82 0 6 102 -32 223 -83z m2122
60 c-37 -22 -166 -85 -220 -107 -22 -9 -51 -26 -64 -38 l-24 -22 12 23 c16 30
90 76 176 108 39 15 84 33 100 40 43 19 55 17 20 -4z m-4365 -62 c0 -5 -2 -10
-4 -10 -3 0 -8 5 -11 10 -3 6 -1 10 4 10 6 0 11 -4 11 -10z m1725 -40 c84 -39
246 -106 272 -114 15 -5 25 -1 33 11 11 16 11 17 6 1 -3 -10 0 -18 7 -19 7 -1
29 -2 50 -3 42 -3 50 -8 54 -36 3 -19 -33 -48 -45 -36 -3 3 1 6 9 7 22 1 -53
27 -81 28 l-25 1 25 -13 c19 -10 24 -20 23 -42 -3 -40 -25 -60 -51 -46 -30 16
-36 46 -16 76 9 14 14 28 10 32 -3 3 -6 1 -6 -5 0 -7 -5 -12 -11 -12 -5 0 -8
4 -5 9 8 12 -14 28 -60 45 -21 7 -68 27 -104 44 -36 17 -92 42 -125 56 -35 14
-61 31 -63 41 -5 20 13 16 103 -25z m5147 -32 c-6 -6 -15 -7 -21 -4 -7 4 -4
13 7 24 13 14 18 15 20 4 2 -8 -1 -19 -6 -24z m-457 22 c8 -13 -4 -70 -14 -70
-5 0 -8 18 -8 40 0 39 9 51 22 30z m-1354 -23 c-10 -9 -11 -8 -5 6 3 10 9 15
12 12 3 -3 0 -11 -7 -18z m-4505 5 c22 -15 24 -42 4 -62 -33 -33 -70 -19 -70
25 0 36 37 57 66 37z m5382 -39 c4 -44 -28 -63 -58 -33 -11 11 -19 24 -17 28
2 4 7 15 10 25 5 13 15 17 34 15 23 -2 29 -8 31 -35z m-1064 -29 c3 -8 2 -12
-4 -9 -6 3 -10 10 -10 16 0 14 7 11 14 -7z m1481 -4 c27 -30 12 -34 -15 -5
-13 14 -19 25 -13 25 5 0 18 -9 28 -20z m-6268 -22 c-3 -8 -6 -5 -6 6 -1 11 2
17 5 13 3 -3 4 -12 1 -19z m4903 -38 c18 -12 2 -12 -25 0 -13 6 -15 9 -5 9 8
0 22 -4 30 -9z m388 -1 c11 6 32 4 57 -4 25 -8 114 -15 243 -17 127 -3 207 -9
214 -16 6 -6 8 -22 4 -36 -5 -22 -12 -26 -41 -26 -30 0 -35 3 -35 23 0 23 -3
24 -107 30 -58 4 -142 7 -187 7 -75 0 -82 -2 -101 -26 -18 -23 -24 -25 -43
-15 -13 7 -22 21 -22 36 0 13 -2 29 -3 37 -2 7 -2 10 0 6 3 -5 12 -4 21 1z
m936 5 c9 -3 16 -10 16 -15 0 -4 -7 -6 -15 -3 -20 8 -19 -5 2 -28 23 -25 11
-33 -17 -10 -17 13 -21 24 -16 40 8 24 8 24 30 16z m-6234 -48 c0 -12 -5 -7
-19 24 -11 24 -11 24 3 6 9 -11 16 -24 16 -30z m999 26 c7 -13 5 -28 -6 -50
-15 -30 -14 -34 3 -53 22 -24 216 -120 344 -169 87 -34 110 -47 110 -60 0 -5
-17 0 -37 10 -21 10 -101 41 -178 70 -206 77 -232 93 -266 157 -36 69 -46 73
-170 73 -63 0 -144 -3 -181 -7 -58 -5 -68 -9 -68 -25 0 -10 -10 -22 -22 -27
-47 -18 -77 28 -42 63 13 14 48 16 224 16 128 0 211 4 215 10 11 17 64 11 74
-8z m3367 -19 c9 -35 -7 -58 -42 -58 -24 0 -30 5 -32 28 -4 35 13 57 44 57 17
0 25 -7 30 -27z m-2356 7 c0 -5 -2 -10 -4 -10 -3 0 -8 5 -11 10 -3 6 -1 10 4
10 6 0 11 -4 11 -10z m293 -97 c59 -31 106 -57 104 -59 -2 -3 -48 16 -101 41
-53 25 -100 45 -104 45 -4 0 -18 10 -32 21 l-25 20 25 -7 c14 -3 74 -31 133
-61z m1817 60 c0 -5 -35 -23 -78 -42 -42 -19 -102 -45 -132 -58 -87 -39 -45
-9 65 45 128 63 145 70 145 55z m2048 -37 c23 -11 42 -23 42 -28 0 -11 -1 -11
-54 12 -25 12 -46 26 -46 31 0 6 3 9 8 7 4 -1 26 -12 50 -22z m-848 -6 c0 -14
-48 -58 -81 -76 -15 -7 -101 -43 -190 -79 -90 -36 -179 -75 -197 -86 -42 -24
-56 -25 -43 -1 6 11 56 37 118 62 98 39 162 67 278 121 22 10 54 30 70 44 33
27 45 31 45 15z m-3036 -106 c167 -84 221 -115 161 -94 -64 23 -369 178 -351
179 10 1 95 -38 190 -85z m1896 81 c0 -5 -177 -91 -293 -141 -79 -34 -100 -30
-24 5 23 11 98 47 167 80 115 56 150 69 150 56z m430 -25 c0 -5 -4 -10 -10
-10 -5 0 -10 5 -10 10 0 6 5 10 10 10 6 0 10 -4 10 -10z m1530 -53 c0 -16 -35
-1 -38 16 -3 16 -1 17 17 5 12 -7 21 -17 21 -21z m-6041 -7 c11 -24 11 -24 -3
-6 -9 11 -16 24 -16 30 0 12 5 7 19 -24z m166 -19 c-9 -16 -25 -3 -18 15 4 10
9 12 15 6 6 -6 7 -15 3 -21z m5888 -1 c-3 -11 -9 -20 -15 -20 -5 0 -4 9 2 20
6 11 12 20 14 20 2 0 2 -9 -1 -20z m-77 -11 c14 -16 16 -23 6 -26 -10 -4 -10
-8 -1 -19 10 -12 9 -13 -5 -8 -9 3 -16 13 -16 20 0 12 -4 12 -20 4 -23 -12
-24 -10 -8 25 14 31 20 31 44 4z m-5382 -18 c28 -31 17 -56 -24 -56 -30 0 -36
4 -38 24 -3 15 3 30 14 38 23 17 28 17 48 -6z m2700 -6 c3 -8 1 -15 -4 -15 -6
0 -10 7 -10 15 0 8 2 15 4 15 2 0 6 -7 10 -15z m-3226 -50 c6 -14 10 -25 8
-25 -2 0 -11 11 -20 25 -9 14 -13 25 -8 25 5 0 14 -11 20 -25z m747 -83 c72
-32 173 -78 226 -101 73 -32 107 -54 145 -92 53 -55 90 -78 143 -90 44 -10 77
3 124 49 l39 37 -22 -40 c-46 -84 -78 -97 -167 -69 -43 14 -73 33 -123 81 -48
45 -87 71 -136 91 -160 66 -424 195 -424 208 0 15 2 14 195 -74z m4623 66 c7
-7 12 -17 12 -22 0 -6 -4 -5 -9 3 -7 11 -18 9 -58 -16 -26 -16 -64 -35 -83
-43 -19 -7 -64 -28 -100 -46 -62 -30 -88 -42 -205 -93 -31 -14 -67 -41 -93
-71 -53 -60 -131 -100 -199 -100 -51 0 -50 -1 -96 80 l-20 35 44 -42 c36 -35
52 -43 82 -43 52 0 123 39 178 97 37 40 68 59 175 106 71 32 176 82 234 111
116 60 121 61 138 44z m472 3 c0 -5 -7 -11 -14 -14 -10 -4 -13 -1 -9 9 6 15
23 19 23 5z m38 -30 c3 -8 -1 -12 -9 -9 -7 2 -15 10 -17 17 -3 8 1 12 9 9 7
-2 15 -10 17 -17z m-5818 -55 c0 -6 -7 -1 -15 10 -8 10 -14 26 -14 34 0 16 28
-28 29 -44z m5737 27 c4 -10 11 -21 17 -25 20 -14 -2 -19 -26 -6 -12 7 -24 13
-26 14 -1 1 0 9 4 18 8 21 23 21 31 -1z m-67 -33 c0 -5 -2 -10 -4 -10 -3 0 -8
5 -11 10 -3 6 -1 10 4 10 6 0 11 -4 11 -10z m-3289 -59 c-38 -52 -142 -151
-160 -151 -5 0 -11 -6 -14 -14 -3 -8 -16 -20 -29 -27 -23 -12 -23 -11 2 17 14
16 32 34 40 40 60 47 160 144 160 156 0 4 5 8 11 8 6 0 1 -13 -10 -29z m3319
-3 c0 -12 -6 -9 -26 13 -19 22 -19 22 4 8 12 -8 22 -17 22 -21z m411 15 c12
-14 12 -16 -2 -11 -11 5 -23 -8 -43 -45 -15 -29 -45 -77 -67 -107 -22 -30 -62
-87 -89 -126 -139 -203 -420 -503 -625 -667 -11 -9 -45 -36 -75 -60 -120 -96
-391 -270 -555 -356 -103 -54 -83 -40 95 66 405 241 671 459 950 778 72 82
263 340 336 452 32 51 60 93 60 93 1 0 8 -8 15 -17z m-451 -13 c0 -5 -2 -10
-4 -10 -3 0 -8 5 -11 10 -3 6 -1 10 4 10 6 0 11 -4 11 -10z m-5563 -62 c28
-35 61 -74 73 -88 12 -14 33 -38 46 -53 13 -16 28 -26 33 -22 5 3 13 0 17 -6
4 -8 3 -9 -4 -5 -15 9 -15 1 -2 -25 21 -38 1 -17 -80 84 -46 56 -88 107 -95
112 -14 12 -49 65 -43 65 3 0 27 -28 55 -62z m5648 42 c-3 -5 -10 -10 -16 -10
-5 0 -9 5 -9 10 0 6 7 10 16 10 8 0 12 -4 9 -10z m-5181 -6 c23 -9 20 -51 -5
-64 -37 -20 -67 28 -37 58 14 14 20 14 42 6z m5086 -3 c0 -5 -9 -7 -20 -4 -11
3 -20 7 -20 9 0 2 9 4 20 4 11 0 20 -4 20 -9z m-372 -39 c4 -40 -20 -53 -48
-27 -24 22 -25 29 -4 50 25 25 49 15 52 -23z m432 7 c0 -6 -4 -7 -10 -4 -5 3
-10 11 -10 16 0 6 5 7 10 4 6 -3 10 -11 10 -16z m-30 -19 c8 -5 11 -12 7 -16
-4 -4 -15 0 -24 9 -18 18 -8 23 17 7z m-5915 -49 c-3 -6 -11 -11 -16 -11 -5 0
-4 6 3 14 14 16 24 13 13 -3z m3032 -3 c-3 -8 -6 -5 -6 6 -1 11 2 17 5 13 3
-3 4 -12 1 -19z m2863 7 c0 -8 -4 -15 -10 -15 -5 0 -10 7 -10 15 0 8 5 15 10
15 6 0 10 -7 10 -15z m-5761 -123 c103 -138 319 -381 432 -486 257 -239 643
-506 961 -667 94 -48 387 -179 401 -180 7 0 8 -2 1 -5 -11 -5 -169 60 -334
138 -417 196 -938 572 -1205 870 -33 36 -63 64 -68 61 -4 -2 -6 0 -5 5 2 6
-33 52 -77 103 -44 51 -98 118 -120 149 -78 110 -84 115 -106 102 -27 -17 -24
2 4 21 12 8 23 14 23 13 1 0 43 -56 93 -124z m458 38 c25 -25 39 -35 32 -22
-8 12 -17 22 -21 22 -5 0 -8 4 -8 8 0 4 9 8 20 8 12 0 19 -5 16 -13 -3 -7 -1
-15 4 -18 6 -4 10 -1 10 6 0 7 3 10 6 7 10 -10 -14 -44 -43 -63 -15 -10 -22
-12 -15 -4 15 16 16 33 0 23 -6 -4 -8 -3 -5 3 4 6 -12 30 -35 53 -33 33 -39
43 -27 50 9 6 15 5 18 -3 2 -7 24 -32 48 -57z m3282 47 c0 -9 -2 -8 -6 1 -2 6
-10 9 -15 6 -7 -4 -8 -2 -4 5 9 13 26 5 25 -12z m-3351 -42 c-3 -3 -9 2 -12
12 -6 14 -5 15 5 6 7 -7 10 -15 7 -18z m4082 15 c0 -5 -5 -10 -11 -10 -5 0 -7
-4 -4 -10 3 -5 2 -10 -4 -10 -17 0 -24 22 -10 31 19 12 29 11 29 -1z m1140 0
c0 -5 -4 -10 -10 -10 -5 0 -10 5 -10 10 0 6 5 10 10 10 6 0 10 -4 10 -10z
m-4050 -14 c0 -8 -7 -16 -15 -20 -15 -5 -21 14 -8 27 11 12 23 8 23 -7z m4140
5 c0 -6 -4 -13 -10 -16 -5 -3 -10 1 -10 9 0 9 5 16 10 16 6 0 10 -4 10 -9z
m-70 -42 c0 -5 4 -7 10 -4 6 3 7 -1 4 -9 -3 -9 -15 -16 -25 -16 -21 0 -22 1
-13 24 7 18 24 22 24 5z m-4746 -18 c4 -5 2 -21 -4 -36 -11 -30 -36 -31 -54
-2 -9 15 -7 21 8 33 23 16 42 18 50 5z m4309 -9 c16 -17 15 -20 -4 -40 -16
-18 -24 -20 -39 -12 -22 12 -26 40 -8 58 17 17 32 15 51 -6z m287 -22 c0 -11
-7 -20 -15 -20 -13 0 -14 4 -5 20 6 11 13 20 15 20 3 0 5 -9 5 -20z m-40 -33
c0 -2 -9 -12 -20 -22 -24 -21 -27 -14 -4 9 15 15 24 20 24 13z m90 -6 c0 -6
-4 -13 -10 -16 -5 -3 -10 1 -10 9 0 9 5 16 10 16 6 0 10 -4 10 -9z m-26 -37
c3 -8 2 -12 -4 -9 -6 3 -10 10 -10 16 0 14 7 11 14 -7z m64 -4 c-7 -10 -14
-17 -17 -15 -4 4 18 35 25 35 2 0 -1 -9 -8 -20z m-253 -1 c4 -6 -7 -22 -24
-36 -17 -14 -28 -30 -24 -36 3 -5 1 -7 -5 -3 -6 3 -37 -17 -69 -45 -32 -28
-68 -58 -80 -66 -13 -8 -20 -19 -17 -24 3 -5 2 -9 -3 -8 -13 2 -53 -13 -53
-20 0 -11 -320 -231 -336 -231 -3 0 -18 -8 -32 -19 -85 -59 -386 -200 -400
-186 -7 7 -13 4 168 93 197 96 284 147 450 266 184 131 387 293 398 319 5 10
20 9 27 -4z m165 -2 c0 -19 -10 -27 -26 -20 -11 4 -12 9 -3 19 15 18 29 18 29
1z m21 -64 c-12 -20 -14 -14 -5 12 4 9 9 14 11 11 3 -2 0 -13 -6 -23z m-2171
-57 c0 -12 -5 -7 -19 24 -11 24 -11 24 3 6 9 -11 16 -24 16 -30z m2000 13 c0
-10 -4 -19 -10 -19 -5 0 -10 12 -10 26 0 14 4 23 10 19 6 -3 10 -15 10 -26z
m145 21 c3 -5 1 -10 -4 -10 -6 0 -11 5 -11 10 0 6 2 10 4 10 3 0 8 -4 11 -10z
m335 -140 c0 -5 -10 -15 -22 -21 -23 -12 -23 -12 -4 10 21 23 26 26 26 11z
m-1312 -33 c6 -5 12 -18 12 -28 0 -33 -63 -51 -82 -24 -14 18 -8 26 10 16 13
-7 23 -6 30 1 20 20 13 38 -13 38 -14 0 -25 -5 -25 -12 0 -6 -3 -8 -7 -4 -5 4
0 14 10 21 19 14 40 11 65 -8z m-2940 -3 c12 -8 22 -24 22 -35 0 -20 -15 -26
-25 -9 -3 6 -11 10 -17 10 -7 0 -7 -4 0 -13 22 -26 -27 -56 -52 -32 -8 8 -19
15 -25 15 -21 0 -11 39 15 59 32 25 52 26 82 5z m-968 -18 c0 -2 -8 -10 -17
-17 -16 -13 -17 -12 -4 4 13 16 21 21 21 13z m605 -124 c-3 -3 -11 0 -18 7 -9
10 -8 11 6 5 10 -3 15 -9 12 -12z m52 -68 c-3 -3 -12 -4 -19 -1 -8 3 -5 6 6 6
11 1 17 -2 13 -5z m2076 -159 c-3 -9 -8 -14 -10 -11 -3 3 -2 9 2 15 9 16 15
13 8 -4z m823 -94 c-9 -13 -165 -77 -211 -85 -60 -12 -36 3 77 46 55 21 104
40 106 43 9 9 33 5 28 -4z m-2112 -52 c47 -17 90 -37 97 -45 6 -8 9 -14 6 -14
-18 0 -174 63 -187 76 -20 20 -13 18 84 -17z m762 6 c3 -14 9 -25 13 -25 9 0
13 -97 6 -142 -10 -57 -18 -39 -21 45 -1 39 -7 85 -13 100 -14 35 -14 47 -1
47 5 0 12 -11 16 -25z m1804 -30 c17 -21 8 -47 -23 -65 -24 -13 -29 -13 -37 0
-32 50 23 110 60 65z m-1825 -187 c7 -7 -4 -8 -35 -3 -92 13 -150 27 -146 34
6 10 168 -18 181 -31z m-699 -14 c18 -14 18 -14 -6 -3 -31 14 -36 19 -24 19 6
0 19 -7 30 -16z m2200 -64 c5 -26 4 -32 -4 -25 -7 6 -15 26 -18 45 -5 26 -4
32 4 25 7 -6 15 -26 18 -45z m-2145 23 c13 -16 12 -17 -3 -4 -17 13 -22 21
-14 21 2 0 10 -8 17 -17z m2538 13 c-10 -9 -69 -36 -69 -32 0 7 52 35 64 36 5
0 7 -2 5 -4z m-1175 -61 c23 -35 3 -79 -37 -83 -34 -4 -53 10 -59 43 -12 59
63 90 96 40z m1086 15 c-8 -5 -19 -10 -25 -10 -5 0 -3 5 5 10 8 5 20 10 25 10
6 0 3 -5 -5 -10z m-2406 -16 c3 -8 2 -12 -4 -9 -6 3 -10 10 -10 16 0 14 7 11
14 -7z m-389 -4 c3 -5 -1 -10 -9 -10 -9 0 -16 5 -16 10 0 6 4 10 9 10 6 0 13
-4 16 -10z m492 -94 c3 9 10 9 28 0 31 -14 31 -17 0 -46 -21 -20 -25 -21 -31
-7 -3 9 -2 21 2 28 4 7 3 9 -3 6 -6 -4 -19 6 -28 21 l-18 27 23 -20 c15 -13
24 -16 27 -9z m1448 -16 c-3 -5 1 -10 9 -10 18 0 21 -15 6 -25 -14 -9 -50 13
-50 30 0 8 9 15 21 15 11 0 17 -4 14 -10z m-1875 -25 c14 -8 21 -14 15 -14 -5
0 -21 6 -35 14 -14 8 -20 14 -15 14 6 0 21 -6 35 -14z m129 -47 c13 -5 22 -11
19 -13 -3 -3 -25 4 -49 15 -41 19 -22 18 30 -2z m656 -9 c15 -15 -20 -10 -51
7 l-29 15 35 -6 c19 -4 39 -11 45 -16z m77 -33 c14 -32 5 -54 -27 -62 -31 -8
-55 10 -55 40 0 49 62 65 82 22z m663 4 c14 -43 -13 -74 -54 -63 -25 7 -36 36
-21 63 15 27 66 28 75 0z m-1410 -264 c0 -22 -14 -29 -34 -17 -19 12 -6 43 16
39 10 -2 18 -12 18 -22z m2133 2 c-2 -13 -10 -23 -18 -23 -8 0 -16 10 -18 23
-3 17 2 22 18 22 16 0 21 -5 18 -22z m-742 -20 c8 -13 -30 -48 -52 -48 -20 0
-17 13 6 38 23 25 35 27 46 10z m-573 -309 c20 -27 10 -58 -19 -65 -49 -12
-73 41 -32 70 29 21 34 20 51 -5z m515 -12 c9 -10 7 -19 -4 -35 -19 -27 -60
-29 -74 -3 -18 35 53 69 78 38z"/>
<path d="M4880 9990 c0 -5 6 -10 14 -10 8 0 18 5 21 10 3 6 -3 10 -14 10 -12
0 -21 -4 -21 -10z"/>
<path d="M5040 9990 c0 -6 33 -10 80 -10 47 0 80 4 80 10 0 6 -33 10 -80 10
-47 0 -80 -4 -80 -10z"/>
<path d="M5415 9950 c3 -5 11 -10 16 -10 6 0 7 5 4 10 -3 6 -11 10 -16 10 -6
0 -7 -4 -4 -10z"/>
<path d="M5580 9843 c0 -4 5 -15 10 -23 8 -13 10 -13 10 2 0 9 -4 20 -10 23
-5 3 -10 3 -10 -2z"/>
<path d="M4560 9829 c0 -5 5 -7 10 -4 6 3 10 8 10 11 0 2 -4 4 -10 4 -5 0 -10
-5 -10 -11z"/>
<path d="M5807 9589 c7 -7 15 -10 18 -7 3 3 -2 9 -12 12 -14 6 -15 5 -6 -5z"/>
<path d="M6000 9342 c1 -14 38 -52 52 -52 11 0 11 -2 0 -9 -10 -6 -9 -10 7
-14 30 -7 26 1 -19 44 -22 21 -40 35 -40 31z"/>
<path d="M3960 9215 c-10 -12 -9 -15 4 -15 10 0 15 4 11 9 -3 5 3 12 12 14 15
4 15 5 2 6 -9 0 -22 -6 -29 -14z"/>
<path d="M6038 9173 c7 -3 16 -2 19 1 4 3 -2 6 -13 5 -11 0 -14 -3 -6 -6z"/>
<path d="M6165 9141 c11 -4 36 -11 55 -15 24 -4 29 -3 15 3 -11 4 -36 11 -55
15 -24 4 -29 3 -15 -3z"/>
<path d="M6420 8696 c0 -2 7 -7 16 -10 8 -3 12 -2 9 4 -6 10 -25 14 -25 6z"/>
<path d="M6533 8636 c14 -14 21 -16 30 -7 8 8 8 11 0 11 -6 0 -20 3 -30 7 -17
7 -17 6 0 -11z"/>
<path d="M5600 8584 c0 -8 5 -12 10 -9 6 4 8 11 5 16 -9 14 -15 11 -15 -7z"/>
<path d="M4570 8471 c0 -6 4 -13 10 -16 6 -3 7 1 4 9 -7 18 -14 21 -14 7z"/>
<path d="M4611 8434 c0 -11 3 -14 6 -6 3 7 2 16 -1 19 -3 4 -6 -2 -5 -13z"/>
<path d="M3140 8330 c0 -5 5 -10 11 -10 5 0 7 5 4 10 -3 6 -8 10 -11 10 -2 0
-4 -4 -4 -10z"/>
<path d="M4544 8312 c4 -7 2 -12 -5 -12 -16 0 22 -29 39 -30 6 0 12 5 12 10 0
6 -9 10 -21 10 -11 0 -18 4 -14 9 3 5 0 13 -6 17 -8 4 -9 3 -5 -4z"/>
<path d="M7623 8135 c0 -7 6 -11 14 -8 7 3 13 6 13 8 0 2 -6 5 -13 8 -8 3 -14
-1 -14 -8z"/>
<path d="M4465 8090 c11 -14 33 -37 49 -52 16 -16 27 -28 24 -28 -6 0 40 -83
71 -130 21 -31 -2 25 -35 85 -18 33 -55 80 -81 105 -26 25 -39 34 -28 20z"/>
<path d="M5688 8013 c-39 -56 -86 -133 -71 -118 9 9 89 123 107 153 19 31 -6
7 -36 -35z"/>
<path d="M2249 7798 c-7 -25 -7 -48 0 -43 6 3 9 14 8 25 -1 17 -5 26 -8 18z"/>
<path d="M2177 7670 c-3 -11 -3 -20 -1 -20 2 0 8 9 14 20 6 11 7 20 2 20 -6 0
-12 -9 -15 -20z"/>
<path d="M2125 7610 c-10 -11 -23 -17 -29 -13 -6 3 -8 3 -4 -2 4 -4 0 -14 -10
-21 -16 -12 -16 -13 1 -10 10 1 23 9 28 17 5 8 9 10 9 4 0 -5 7 1 16 13 21 30
13 38 -11 12z"/>
<path d="M2061 7521 c-12 -16 -21 -35 -21 -41 0 -10 -3 -10 -14 -1 -11 9 -15
8 -20 -4 -3 -9 -2 -13 4 -10 6 3 7 -1 4 -9 -3 -9 -10 -14 -14 -11 -5 3 -12 0
-16 -7 -4 -7 -4 -10 1 -6 4 4 15 2 23 -5 11 -8 14 -8 9 0 -4 6 -3 13 2 15 9 3
74 108 66 108 -2 0 -13 -13 -24 -29z"/>
<path d="M2196 7418 c-8 -13 -16 -30 -18 -38 -2 -8 -6 -17 -10 -20 -20 -15
-116 -175 -111 -184 4 -6 8 -4 11 4 12 44 12 45 23 30 8 -11 9 -9 4 9 -5 14
-3 21 3 17 5 -3 9 2 8 12 0 9 4 16 11 15 6 -2 17 13 23 31 6 18 20 42 30 51
11 10 20 26 20 36 0 10 5 21 10 24 6 3 10 -2 10 -12 0 -15 2 -14 16 5 15 22
12 42 -6 42 -5 0 -16 -10 -24 -22z"/>
<path d="M1946 7375 c-3 -8 -1 -15 4 -15 6 0 10 7 10 15 0 8 -2 15 -4 15 -2 0
-6 -7 -10 -15z"/>
<path d="M1895 7289 c-33 -56 -39 -89 -18 -89 11 0 66 100 59 107 -3 4 -6 2
-6 -4 0 -6 -7 -13 -15 -17 -13 -5 -14 -2 -5 15 6 11 18 23 26 26 16 6 19 23 4
23 -5 0 -25 -28 -45 -61z m-4 -50 c-5 -13 -10 -19 -10 -12 -1 15 10 45 15 40
3 -2 0 -15 -5 -28z"/>
<path d="M2027 7153 c-4 -3 -7 -14 -7 -24 0 -10 -6 -24 -13 -31 -30 -31 -127
-219 -127 -246 0 -14 4 -12 20 8 17 21 19 21 14 5 -5 -16 -4 -17 5 -5 6 8 11
22 11 31 0 9 7 22 15 29 12 10 13 16 4 27 -10 11 -9 12 5 7 10 -4 16 -1 16 7
0 7 8 21 17 31 12 13 13 22 6 29 -12 12 -6 49 8 49 13 0 11 -14 -3 -28 -7 -7
-8 -12 -2 -12 15 0 35 47 28 64 -3 8 3 19 15 26 12 6 21 16 20 23 0 9 -2 9 -6
0 -2 -7 -9 -13 -14 -13 -4 0 -6 7 -3 15 6 16 2 20 -9 8z m-51 -159 c-21 -20
-28 -17 -14 5 7 11 16 17 20 15 5 -3 2 -12 -6 -20z"/>
<path d="M4465 6970 c28 -11 55 -20 60 -19 15 0 -78 38 -95 38 -8 0 8 -9 35
-19z"/>
<path d="M4555 6940 c11 -5 29 -8 40 -8 16 0 15 2 -5 8 -34 11 -60 11 -35 0z"/>
<path d="M8801 6755 c0 -5 6 -21 14 -35 8 -14 14 -20 14 -15 0 6 -6 21 -14 35
-8 14 -14 21 -14 15z"/>
<path d="M5705 6674 c-248 -32 -405 -114 -488 -256 -48 -82 -57 -142 -57 -368
1 -200 1 -204 18 -173 10 18 41 60 70 92 45 52 52 65 52 103 0 62 19 166 35
198 22 42 75 91 121 112 32 14 214 58 240 58 2 0 4 -56 4 -125 0 -140 -16
-193 -72 -240 -36 -30 -48 -33 -165 -38 -84 -3 -97 -6 -135 -33 -54 -37 -122
-140 -150 -224 -18 -58 -21 -91 -22 -297 -1 -128 0 -233 1 -233 2 0 24 41 49
92 111 221 261 393 511 587 157 122 304 265 334 327 18 39 21 58 17 127 -5 89
-25 140 -78 200 -53 61 -187 104 -285 91z"/>
<path d="M4483 6645 c-107 -33 -179 -101 -215 -202 -16 -47 -19 -73 -15 -136
8 -120 39 -173 157 -270 346 -286 493 -448 619 -687 l48 -92 -4 229 c-4 264
-12 318 -58 414 -70 147 -101 169 -239 169 -102 0 -138 9 -174 43 -47 44 -56
82 -56 224 0 73 3 135 6 138 3 3 39 -2 79 -11 198 -45 270 -117 293 -294 7
-48 12 -57 94 -170 l52 -73 0 85 c0 135 -12 271 -22 256 -6 -9 -7 -5 -3 10 13
46 -62 211 -93 205 -6 -2 -9 4 -6 11 3 9 -3 17 -16 21 -12 4 -19 9 -17 12 9 8
-26 43 -73 73 -86 55 -256 77 -357 45z"/>
<path d="M8544 6514 c-4 -14 -2 -30 3 -35 5 -5 9 5 9 26 0 42 -3 44 -12 9z"/>
<path d="M4666 6299 c37 -42 255 -231 260 -226 6 6 -55 65 -178 172 -84 73
-121 97 -82 54z"/>
<path d="M5580 6265 c-7 -8 -17 -15 -22 -15 -24 0 -245 -187 -234 -198 3 -3
14 3 23 14 25 26 126 111 196 162 31 24 57 45 57 47 0 9 -7 5 -20 -10z"/>
<path d="M8828 6243 c7 -3 16 -2 19 1 4 3 -2 6 -13 5 -11 0 -14 -3 -6 -6z"/>
<path d="M8907 6200 c3 -11 9 -20 14 -20 5 0 9 9 9 20 0 11 -6 20 -14 20 -9 0
-12 -7 -9 -20z"/>
<path d="M8827 6160 c3 -11 9 -17 14 -15 10 7 1 35 -11 35 -5 0 -6 -9 -3 -20z"/>
<path d="M6110 6080 c-30 -12 -63 -24 -72 -27 -30 -9 -20 -19 39 -37 65 -21
149 -93 190 -164 62 -106 80 -244 43 -350 l-19 -57 60 65 c33 36 75 92 95 124
106 178 74 370 -74 442 -57 28 -192 30 -262 4z"/>
<path d="M3802 6079 c-44 -13 -118 -89 -144 -147 -24 -54 -28 -155 -8 -217 28
-88 65 -130 216 -246 6 -5 2 24 -9 64 -41 157 0 314 108 417 29 27 74 59 99
72 25 12 46 25 46 29 0 4 -32 14 -71 23 -78 18 -185 20 -237 5z"/>
<path d="M4065 5976 c-133 -63 -205 -228 -175 -399 17 -98 51 -161 127 -234
66 -64 246 -191 369 -260 l72 -41 -5 58 c-3 31 -1 65 4 75 8 13 12 4 17 -45 4
-34 12 -72 18 -85 20 -43 240 -127 331 -126 17 0 27 -5 27 -14 0 -8 5 -15 10
-15 12 0 13 267 1 347 -6 40 -4 50 4 43 13 -11 -3 92 -23 157 -13 41 -69 146
-91 170 -40 44 -60 76 -54 86 3 5 2 7 -4 4 -13 -8 -116 84 -143 129 -12 19
-27 33 -33 31 -5 -1 -22 8 -36 21 -14 14 -71 47 -125 73 -91 45 -105 49 -170
49 -54 0 -83 -6 -121 -24z m168 -161 c-59 -25 -148 -87 -192 -134 -24 -25 -39
-36 -33 -25 30 58 192 173 242 173 8 0 1 -6 -17 -14z m207 -102 c30 -8 71 -24
90 -35 47 -27 97 -91 111 -141 12 -44 4 -144 -13 -164 -13 -16 -53 2 -66 31
-9 21 -96 131 -130 166 -8 8 -3 -4 12 -27 31 -50 31 -50 9 -56 -14 -4 -13 -5
4 -6 14 -1 34 -20 62 -62 44 -66 49 -79 27 -79 -30 0 -166 29 -186 40 -47 25
-58 92 -45 262 l7 97 32 -5 c17 -3 56 -13 86 -21z"/>
<path d="M5985 5983 c-11 -3 -33 -11 -50 -18 -16 -8 -46 -20 -66 -28 -58 -23
-170 -102 -220 -154 -97 -100 -157 -159 -182 -175 -35 -24 -130 -171 -182
-280 -50 -106 -78 -184 -100 -278 -18 -81 -19 -135 0 -65 7 27 11 54 7 59 -3
5 3 6 13 3 11 -5 22 -1 31 10 12 17 13 17 20 0 5 -15 9 -16 15 -5 6 9 9 6 9
-10 0 -13 4 -21 9 -18 5 3 7 14 4 24 -2 10 3 24 11 31 9 8 16 10 16 6 0 -4 7
-2 15 5 8 7 12 16 9 21 -3 5 2 9 10 9 14 0 16 -16 16 -102 0 -57 4 -109 8
-115 10 -16 193 41 281 87 60 31 75 51 87 114 10 58 24 52 21 -8 l-2 -55 35
20 c186 110 406 303 453 399 52 107 55 239 8 345 -24 54 -95 132 -140 154 -39
20 -104 31 -136 24z m-46 -260 c0 -10 3 -63 7 -119 8 -120 -3 -162 -54 -216
-46 -49 -115 -72 -182 -63 -28 4 -50 11 -50 17 0 10 103 167 150 228 48 62 43
66 -12 10 -29 -31 -78 -93 -107 -138 -46 -69 -58 -81 -75 -76 -28 9 -26 5 -33
62 -11 98 32 200 106 246 50 32 155 65 208 65 33 1 42 -3 42 -16z"/>
<path d="M5705 5360 c3 -5 14 -10 23 -10 15 0 15 2 2 10 -20 13 -33 13 -25 0z"/>
<path d="M2839 5798 c-8 -7 -23 -24 -34 -38 -12 -16 -6 -12 18 9 20 19 37 36
37 38 0 6 -6 3 -21 -9z"/>
<path d="M4655 5737 c10 -15 20 -25 23 -22 3 3 -5 16 -17 28 l-23 22 17 -28z"/>
<path d="M7393 5160 c0 -25 2 -35 4 -22 2 12 2 32 0 45 -2 12 -4 2 -4 -23z"/>
<path d="M7412 5155 c0 -16 2 -22 5 -12 2 9 2 23 0 30 -3 6 -5 -1 -5 -18z"/>
<path d="M7532 5150 c0 -14 2 -19 5 -12 2 6 2 18 0 25 -3 6 -5 1 -5 -13z"/>
<path d="M5162 4895 c0 -16 2 -22 5 -12 2 9 2 23 0 30 -3 6 -5 -1 -5 -18z"/>
<path d="M1281 4764 c0 -11 3 -14 6 -6 3 7 2 16 -1 19 -3 4 -6 -2 -5 -13z"/>
<path d="M1841 4135 c-2 -16 -3 -36 -2 -44 2 -7 -2 -10 -7 -7 -6 4 -6 -7 0
-29 12 -39 38 -56 38 -25 0 11 5 20 10 20 6 0 10 7 10 15 0 8 5 15 11 15 14 0
7 42 -8 47 -6 3 -13 -8 -15 -23 -5 -48 -27 -40 -31 13 -2 33 -4 39 -6 18z"/>
<path d="M1890 4019 c0 -5 5 -7 10 -4 6 3 10 8 10 11 0 2 -4 4 -10 4 -5 0 -10
-5 -10 -11z"/>
<path d="M5171 3904 c0 -11 3 -14 6 -6 3 7 2 16 -1 19 -3 4 -6 -2 -5 -13z"/>
<path d="M2014 3874 c3 -9 6 -18 6 -20 0 -2 4 -4 8 -4 4 0 8 9 8 20 0 11 -7
20 -14 20 -9 0 -12 -6 -8 -16z"/>
<path d="M2280 3471 c0 -6 4 -13 10 -16 6 -3 7 1 4 9 -7 18 -14 21 -14 7z"/>
<path d="M2250 3461 c0 -10 19 -25 25 -20 1 2 -3 10 -11 17 -8 7 -14 8 -14 3z"/>
<path d="M2325 3370 c-3 -6 1 -7 9 -4 18 7 21 14 7 14 -6 0 -13 -4 -16 -10z"/>
<path d="M5041 3144 c0 -11 3 -14 6 -6 3 7 2 16 -1 19 -3 4 -6 -2 -5 -13z"/>
<path d="M6200 3054 c0 -2 21 -14 48 -26 26 -12 52 -27 57 -33 6 -6 35 -17 65
-24 60 -14 108 -29 243 -72 80 -26 168 -52 174 -51 2 0 51 -13 110 -30 118
-33 171 -44 162 -34 -4 4 -82 29 -175 56 -249 72 -413 123 -556 173 -71 25
-128 43 -128 41z"/>
<path d="M2640 3010 c0 -5 4 -10 9 -10 6 0 13 5 16 10 3 6 -1 10 -9 10 -9 0
-16 -4 -16 -10z"/>
<path d="M7070 2776 c0 -2 9 -6 20 -9 11 -3 18 -1 14 4 -5 9 -34 13 -34 5z"/>
<path d="M5961 2494 c0 -11 3 -14 6 -6 3 7 2 16 -1 19 -3 4 -6 -2 -5 -13z"/>
<path d="M3799 2222 c9 -7 10 -11 2 -15 -7 -4 -8 -5 -1 -3 16 2 14 20 -2 24
-10 3 -10 2 1 -6z"/>
<path d="M5103 2090 c0 -41 2 -58 4 -37 2 20 2 54 0 75 -2 20 -4 3 -4 -38z"/>
<path d="M5103 1960 c0 -25 2 -35 4 -22 2 12 2 32 0 45 -2 12 -4 2 -4 -23z"/>
<path d="M6682 9129 c2 -6 8 -10 13 -10 5 0 11 4 13 10 2 6 -4 11 -13 11 -9 0
-15 -5 -13 -11z"/>
<path d="M4625 8220 c-3 -5 -2 -17 3 -26 8 -14 10 -12 10 9 0 29 -3 33 -13 17z"/>
<path d="M3927 8043 c-4 -3 -7 -11 -7 -17 0 -6 5 -5 12 2 6 6 9 14 7 17 -3 3
-9 2 -12 -2z"/>
<path d="M6648 7793 c7 -3 16 -2 19 1 4 3 -2 6 -13 5 -11 0 -14 -3 -6 -6z"/>
<path d="M6528 7783 c7 -3 16 -2 19 1 4 3 -2 6 -13 5 -11 0 -14 -3 -6 -6z"/>
<path d="M6540 7301 c0 -6 4 -12 8 -15 5 -3 9 1 9 9 0 8 -4 15 -9 15 -4 0 -8
-4 -8 -9z"/>
<path d="M6580 7280 c-13 -8 -13 -10 2 -10 9 0 20 5 23 10 8 13 -5 13 -25 0z"/>
<path d="M6645 7260 c-3 -5 -1 -10 4 -10 6 0 11 5 11 10 0 6 -2 10 -4 10 -3 0
-8 -4 -11 -10z"/>
<path d="M6120 7625 c0 -27 9 -32 27 -14 14 14 6 39 -13 39 -8 0 -14 -10 -14
-25z"/>
<path d="M2947 7146 c-4 -10 -1 -13 9 -9 7 3 14 9 14 14 0 14 -17 10 -23 -5z"/>
<path d="M7415 7178 c4 -15 2 -36 -5 -47 -8 -17 -8 -21 3 -21 38 0 45 53 11
81 -13 11 -14 9 -9 -13z"/>
<path d="M7000 6815 c-6 -8 -33 -26 -58 -41 -57 -33 -113 -80 -105 -88 4 -3
-8 -9 -25 -12 -18 -4 -29 -10 -26 -15 3 -5 -1 -9 -8 -9 -7 0 -19 -9 -26 -20
-7 -12 -16 -19 -21 -16 -4 3 -8 -1 -8 -9 0 -8 5 -11 11 -8 25 15 113 82 138
106 15 14 29 23 31 21 2 -2 30 21 63 51 32 30 56 54 53 55 -4 0 -12 -7 -19
-15z"/>
<path d="M6686 6574 c-5 -12 -10 -13 -19 -6 -9 8 -23 0 -53 -31 -65 -67 -61
-72 15 -16 73 53 90 69 73 69 -6 0 -13 -7 -16 -16z"/>
<path d="M2462 6388 c-20 -20 -15 -66 9 -73 11 -4 23 -4 26 -1 4 3 0 6 -8 7
-8 0 -6 4 6 9 19 8 19 9 -3 9 -27 1 -39 26 -22 46 15 18 9 20 -8 3z"/>
<path d="M2533 6379 c3 -13 1 -30 -6 -38 -11 -14 -10 -14 6 -2 12 9 17 10 17
2 0 -7 5 -9 10 -6 18 11 11 44 -11 56 -20 10 -21 9 -16 -12z"/>
<path d="M7792 6408 c-7 -7 -12 -20 -12 -30 0 -13 8 -18 30 -18 30 0 37 11 24
44 -7 19 -25 21 -42 4z"/>
<path d="M7485 6162 c-24 -8 -55 -31 -73 -54 -10 -12 -10 -18 -1 -24 8 -5 9
-3 4 6 -5 9 -4 11 3 6 7 -4 12 -30 11 -59 -1 -41 -3 -47 -9 -27 l-8 25 -1 -27
c-1 -33 49 -78 87 -78 66 0 125 70 115 137 -5 33 -59 97 -74 87 -4 -2 -10 0
-14 6 -7 11 -10 11 -40 2z m71 -93 c2 -4 -3 -12 -11 -19 -8 -7 -15 -17 -15
-22 0 -6 7 -4 17 3 15 13 15 12 2 -8 -7 -12 -16 -18 -19 -13 -3 5 -11 5 -20 0
-19 -12 -43 -13 -35 -1 3 5 1 12 -5 16 -5 3 -10 -2 -10 -11 0 -29 -12 -7 -15
28 -3 28 -1 30 10 15 12 -16 13 -16 18 3 4 17 12 20 42 18 20 -1 38 -5 41 -9z
m-16 -95 c0 -8 -19 -13 -24 -6 -3 5 1 9 9 9 8 0 15 -2 15 -3z m-50 -14 c13 -9
13 -10 0 -10 -8 0 -22 5 -30 10 -13 9 -13 10 0 10 8 0 22 -5 30 -10z"/>
<path d="M7680 6160 c0 -5 5 -10 11 -10 5 0 7 5 4 10 -3 6 -8 10 -11 10 -2 0
-4 -4 -4 -10z"/>
<path d="M1478 5083 c7 -3 16 -2 19 1 4 3 -2 6 -13 5 -11 0 -14 -3 -6 -6z"/>
<path d="M8616 5969 c-3 -8 -2 -36 2 -64 l8 -50 8 54 c4 34 3 58 -3 64 -7 7
-12 6 -15 -4z"/>
<path d="M8587 5663 c-12 -11 -8 -23 9 -23 8 0 13 4 10 9 -4 5 0 12 6 14 9 4
8 6 -3 6 -9 1 -19 -2 -22 -6z"/>
<path d="M2230 5639 c-9 -16 -8 -26 5 -45 8 -13 18 -24 20 -24 3 0 -1 10 -10
23 -13 21 -13 25 1 45 8 12 11 22 5 22 -6 0 -15 -9 -21 -21z"/>
<path d="M2307 5654 c-4 -4 -7 -18 -7 -31 0 -27 25 -31 34 -6 7 18 -16 48 -27
37z"/>
<path d="M2320 5570 c-8 -5 -23 -7 -34 -4 -12 4 -16 2 -12 -5 10 -16 51 -14
66 4 14 17 3 20 -20 5z"/>
<path d="M7878 5483 c-26 -31 -30 -44 -18 -58 18 -22 44 -18 71 11 l24 26 -24
19 c-29 23 -34 24 -53 2z"/>
<path d="M8993 5105 c0 -8 4 -15 9 -15 5 0 6 -5 2 -12 -4 -7 -3 -8 4 -4 9 5 9
13 2 27 -13 23 -17 24 -17 4z"/>
<path d="M4167 4634 c-12 -13 -7 -20 13 -20 11 0 19 5 17 10 -4 13 -21 18 -30
10z"/>
<path d="M4050 4585 c-14 -8 -20 -14 -14 -15 5 0 19 7 30 15 24 18 16 19 -16
0z"/>
<path d="M3970 4550 c-12 -12 -18 -26 -14 -32 4 -7 12 -2 19 13 7 12 21 26 31
30 17 7 17 8 2 8 -10 1 -27 -8 -38 -19z"/>
<path d="M4070 4565 c0 -2 6 -8 13 -14 10 -8 14 -7 14 2 0 8 -6 14 -14 14 -7
0 -13 -1 -13 -2z"/>
<path d="M6030 4616 c0 -2 8 -10 18 -17 15 -13 16 -12 3 4 -13 16 -21 21 -21
13z"/>
<path d="M6161 4593 c3 -20 -3 -23 -23 -12 -17 8 -20 8 -12 0 14 -16 57 -23
48 -9 -5 7 -1 9 9 5 24 -9 21 0 -3 13 -11 6 -20 7 -19 3z"/>
<path d="M6108 4475 c-4 -4 -2 -15 4 -25 10 -16 12 -16 29 1 24 24 24 32 0 19
-13 -7 -20 -7 -23 1 -2 6 -6 7 -10 4z"/>
<path d="M6453 4373 c9 -2 23 -2 30 0 6 3 -1 5 -18 5 -16 0 -22 -2 -12 -5z"/>
<path d="M2587 4348 c-22 -18 -39 -66 -31 -92 13 -43 64 -77 64 -43 0 6 9 23
19 36 l19 24 11 -21 c7 -14 21 -22 36 -22 22 0 25 4 25 36 0 69 -90 121 -143
82z"/>
<path d="M7541 4358 c-1 -16 2 -28 7 -28 4 -1 25 -3 47 -6 29 -4 36 -2 25 5
-8 6 -25 11 -38 11 -14 0 -26 8 -32 23 -8 21 -9 21 -9 -5z"/>
<path d="M7490 4330 l-25 -8 28 -1 c15 -1 27 4 27 9 0 6 -1 10 -2 9 -2 -1 -14
-5 -28 -9z"/>
<path d="M7422 4322 c-11 -7 -35 -112 -27 -120 1 -1 16 5 34 15 35 20 38 38
15 72 -14 19 -14 25 -3 32 8 5 10 9 4 9 -5 0 -16 -4 -23 -8z"/>
<path d="M7407 4173 c-14 -4 -16 -8 -6 -19 16 -20 36 -17 49 6 11 21 0 24 -43
13z"/>
<path d="M4416 4325 c4 -11 11 -25 16 -32 13 -17 2 -45 -23 -61 -18 -12 -23
-10 -46 14 -16 18 -23 35 -20 50 5 26 -10 33 -19 10 -7 -17 22 -76 37 -76 6 0
8 -4 4 -9 -3 -5 5 -12 17 -14 17 -3 15 -5 -9 -6 -36 -1 -63 27 -63 67 0 13 -4
20 -10 17 -17 -10 -11 -38 15 -77 21 -31 31 -36 69 -39 24 -2 43 -3 41 -1 -1
2 12 20 31 40 19 20 33 44 33 52 -1 11 -3 10 -6 -3 -2 -9 -9 -14 -15 -11 -6 4
-8 2 -5 -3 4 -6 0 -14 -9 -17 -25 -10 -26 -7 -4 16 27 29 25 39 -11 74 -24 23
-29 25 -23 9z"/>
<path d="M4380 4282 c0 -21 2 -22 15 -12 8 7 15 18 15 25 0 6 -7 12 -15 12 -9
0 -15 -10 -15 -25z"/>
<path d="M5842 4278 c-24 -24 -11 -78 20 -78 36 0 59 38 44 73 -9 20 -46 23
-64 5z"/>
<path d="M5770 4255 c-24 -29 22 -110 69 -120 50 -11 121 40 121 86 0 11 4 18
9 15 5 -4 7 3 4 15 -4 16 -8 17 -14 7 -7 -10 -9 -10 -9 0 0 6 -5 12 -10 12 -6
0 -10 -6 -9 -12 3 -24 -1 -34 -21 -56 -38 -41 -90 -21 -105 41 -8 30 -17 34
-35 12z"/>
<path d="M7535 4220 c-3 -5 1 -10 10 -10 9 0 13 5 10 10 -3 6 -8 10 -10 10 -2
0 -7 -4 -10 -10z"/>
<path d="M3367 3973 c-3 -4 1 -14 9 -20 7 -7 15 -9 18 -4 3 5 -1 14 -8 20 -8
7 -16 8 -19 4z"/>
<path d="M3250 3932 c0 -12 64 -72 78 -72 7 0 12 7 12 15 0 8 -6 15 -14 15 -7
0 -19 7 -26 16 -17 19 -50 37 -50 26z"/>
<path d="M5532 1780 c-14 -23 -1 -60 22 -60 18 0 49 48 42 66 -8 21 -49 17
-64 -6z m38 -20 c0 -5 -4 -10 -10 -10 -5 0 -10 5 -10 10 0 6 5 10 10 10 6 0
10 -4 10 -10z"/>
</g>
</svg>
